<?xml version="1.0" encoding="UTF-8"?>
<!DOCTYPE svg PUBLIC "-//W3C//DTD SVG 1.1//EN" "http://www.w3.org/Graphics/SVG/1.1/DTD/svg11.dtd">
<svg xmlns="http://www.w3.org/2000/svg" version="1.1" width="512px" height="512px" style="shape-rendering:geometricPrecision; text-rendering:geometricPrecision; image-rendering:optimizeQuality; fill-rule:evenodd; clip-rule:evenodd" xmlns:xlink="http://www.w3.org/1999/xlink">
<g><path style="opacity:1" fill="#fdfdfd" d="M -0.5,-0.5 C 170.167,-0.5 340.833,-0.5 511.5,-0.5C 511.5,66.5 511.5,133.5 511.5,200.5C 499.392,207.057 487.392,213.89 475.5,221C 477.343,226.878 477.677,232.712 476.5,238.5C 466.898,152.415 423.231,90.5818 345.5,53C 262.783,19.9364 186.116,30.2698 115.5,84C 43.6918,148.107 19.8585,226.94 44,320.5C 54.5283,354.251 71.695,383.918 95.5,409.5C 63.8105,427.097 32.3105,445.097 1,463.5C 0.500075,479.163 0.333409,494.83 0.5,510.5C 0.5,510.833 0.5,511.167 0.5,511.5C 0.166667,511.5 -0.166667,511.5 -0.5,511.5C -0.5,340.833 -0.5,170.167 -0.5,-0.5 Z"/></g>
<g><path style="opacity:1" fill="#75aadb" d="M 476.5,238.5 C 479.017,274.555 473.35,309.222 459.5,342.5C 426.503,414.311 371.169,458.144 293.5,474C 283.825,475.216 274.158,476.383 264.5,477.5C 214.306,478.543 168.64,464.876 127.5,436.5C 116.272,428.281 105.605,419.281 95.5,409.5C 71.695,383.918 54.5283,354.251 44,320.5C 19.8585,226.94 43.6918,148.107 115.5,84C 186.116,30.2698 262.783,19.9364 345.5,53C 423.231,90.5818 466.898,152.415 476.5,238.5 Z"/></g>
<g><path style="opacity:1" fill="#fbfbfc" d="M 258.5,254.5 C 247.679,253.505 236.679,253.172 225.5,253.5C 225.169,278.006 225.502,302.339 226.5,326.5C 236.833,326.5 247.167,326.5 257.5,326.5C 257.5,332.5 257.5,338.5 257.5,344.5C 231.167,344.5 204.833,344.5 178.5,344.5C 178.5,338.5 178.5,332.5 178.5,326.5C 187.5,326.5 196.5,326.5 205.5,326.5C 205.5,272.833 205.5,219.167 205.5,165.5C 196.089,165.157 186.756,164.157 177.5,162.5C 177.5,156.833 177.5,151.167 177.5,145.5C 198.434,149.274 219.434,149.441 240.5,146C 251.833,145.333 263.167,145.333 274.5,146C 308.319,151.133 324.486,170.633 323,204.5C 320.486,222.999 310.986,236.499 294.5,245C 289.799,247.008 285.133,249.008 280.5,251C 297.5,276 314.5,301 331.5,326C 339.493,326.5 347.493,326.666 355.5,326.5C 355.5,332.5 355.5,338.5 355.5,344.5C 343.162,344.667 330.829,344.5 318.5,344C 298.366,314.224 278.366,284.391 258.5,254.5 Z"/></g>
<g><path style="opacity:1" fill="#75aadb" d="M 246.5,163.5 C 256.208,163.256 265.874,163.756 275.5,165C 297.638,172.433 305.805,187.6 300,210.5C 296.444,220.543 289.61,227.377 279.5,231C 272.006,233.457 264.34,235.123 256.5,236C 246.172,236.5 235.839,236.666 225.5,236.5C 225.5,212.833 225.5,189.167 225.5,165.5C 232.677,165.158 239.677,164.491 246.5,163.5 Z"/></g>
<g><path style="opacity:1" fill="#f6f7f7" d="M 511.5,200.5 C 511.5,238.5 511.5,276.5 511.5,314.5C 494.776,324.281 477.942,333.948 461,343.5C 460.617,342.944 460.117,342.611 459.5,342.5C 473.35,309.222 479.017,274.555 476.5,238.5C 477.677,232.712 477.343,226.878 475.5,221C 487.392,213.89 499.392,207.057 511.5,200.5 Z"/></g>
<g><path style="opacity:1" fill="#93bce2" d="M 258.5,254.5 C 247.833,254.5 237.167,254.5 226.5,254.5C 226.5,278.5 226.5,302.5 226.5,326.5C 225.502,302.339 225.169,278.006 225.5,253.5C 236.679,253.172 247.679,253.505 258.5,254.5 Z"/></g>
<g><path style="opacity:1" fill="#b7d1ea" d="M 178.5,326.5 C 178.5,332.5 178.5,338.5 178.5,344.5C 204.833,344.5 231.167,344.5 257.5,344.5C 231.005,345.498 204.339,345.831 177.5,345.5C 177.177,338.978 177.51,332.645 178.5,326.5 Z"/></g>
<g><path style="opacity:1" fill="#f1f1f2" d="M 511.5,314.5 C 511.5,347.167 511.5,379.833 511.5,412.5C 454.47,445.01 397.803,478.01 341.5,511.5C 295.5,511.5 249.5,511.5 203.5,511.5C 220.997,500.863 238.663,490.363 256.5,480C 259.251,479.057 261.917,478.224 264.5,477.5C 274.158,476.383 283.825,475.216 293.5,474C 371.169,458.144 426.503,414.311 459.5,342.5C 460.117,342.611 460.617,342.944 461,343.5C 477.942,333.948 494.776,324.281 511.5,314.5 Z"/></g>
<g><path style="opacity:1" fill="#f9f9fa" d="M 95.5,409.5 C 105.605,419.281 116.272,428.281 127.5,436.5C 85.694,461.909 43.3607,486.576 0.5,510.5C 0.333409,494.83 0.500075,479.163 1,463.5C 32.3105,445.097 63.8105,427.097 95.5,409.5 Z"/></g>
<g><path style="opacity:1" fill="#ededee" d="M 511.5,412.5 C 511.5,423.167 511.5,433.833 511.5,444.5C 472.311,466.042 433.645,488.376 395.5,511.5C 377.5,511.5 359.5,511.5 341.5,511.5C 397.803,478.01 454.47,445.01 511.5,412.5 Z"/></g>
<g><path style="opacity:1" fill="#f6f7f7" d="M 127.5,436.5 C 168.64,464.876 214.306,478.543 264.5,477.5C 261.917,478.224 259.251,479.057 256.5,480C 238.663,490.363 220.997,500.863 203.5,511.5C 135.833,511.5 68.1667,511.5 0.5,511.5C 0.5,511.167 0.5,510.833 0.5,510.5C 43.3607,486.576 85.694,461.909 127.5,436.5 Z"/></g>
<g><path style="opacity:1" fill="#eaeaeb" d="M 511.5,444.5 C 511.5,466.833 511.5,489.167 511.5,511.5C 472.833,511.5 434.167,511.5 395.5,511.5C 433.645,488.376 472.311,466.042 511.5,444.5 Z"/></g>
</svg>
