<?xml version="1.0" encoding="UTF-8"?>
<!DOCTYPE svg PUBLIC "-//W3C//DTD SVG 1.1//EN" "http://www.w3.org/Graphics/SVG/1.1/DTD/svg11.dtd">
<svg xmlns="http://www.w3.org/2000/svg" version="1.1" width="180px" height="188px" style="shape-rendering:geometricPrecision; text-rendering:geometricPrecision; image-rendering:optimizeQuality; fill-rule:evenodd; clip-rule:evenodd" xmlns:xlink="http://www.w3.org/1999/xlink">
<g><path style="opacity:0.99" fill="#6d6e6e" d="M 143.5,5.5 C 143.66,7.15298 144.326,8.48631 145.5,9.5C 145.5,11.8333 145.5,14.1667 145.5,16.5C 144.662,16.8417 144.328,17.5084 144.5,18.5C 143.662,18.8417 143.328,19.5084 143.5,20.5C 142.833,20.5 142.5,20.8333 142.5,21.5C 141.833,21.5 141.5,21.8333 141.5,22.5C 139.973,22.427 138.973,23.0937 138.5,24.5C 135.5,24.5 132.5,24.5 129.5,24.5C 127.858,23.197 126.191,21.8637 124.5,20.5C 119.714,7.79815 124.047,1.63148 137.5,2C 139.692,2.92601 141.692,4.09267 143.5,5.5 Z"/></g>
<g><path style="opacity:0.008" fill="#7e7f7e" d="M 143.5,4.5 C 144.833,5.16667 144.833,5.16667 143.5,4.5 Z"/></g>
<g><path style="opacity:0.008" fill="#9d9d9d" d="M 120.5,8.5 C 121.573,9.25057 121.74,10.2506 121,11.5C 120.517,10.552 120.351,9.55198 120.5,8.5 Z"/></g>
<g><path style="opacity:0.012" fill="#626262" d="M 146.5,9.5 C 146.167,9.5 145.833,9.5 145.5,9.5C 145.833,6.83333 146.167,6.83333 146.5,9.5 Z"/></g>
<g><path style="opacity:0.012" fill="#606060" d="M 146.5,9.5 C 147.622,11.2884 147.789,13.2884 147,15.5C 146.505,13.5273 146.338,11.5273 146.5,9.5 Z"/></g>
<g><path style="opacity:0.008" fill="#ff72ff" d="M 77.5,15.5 C 78.9464,14.3871 80.6131,14.2204 82.5,15C 80.8659,15.4935 79.1992,15.6602 77.5,15.5 Z"/></g>
<g><path style="opacity:0.012" fill="#ff4d00" d="M 66.5,16.5 C 68.2884,15.3775 70.2884,15.2109 72.5,16C 70.5273,16.4955 68.5273,16.6621 66.5,16.5 Z"/></g>
<g><path style="opacity:0.012" fill="#ff51ff" d="M 87.5,16.5 C 89.2884,15.3775 91.2884,15.2109 93.5,16C 91.5273,16.4955 89.5273,16.6621 87.5,16.5 Z"/></g>
<g><path style="opacity:0.012" fill="#878787" d="M 120.5,14.5 C 121.573,15.2506 121.74,16.2506 121,17.5C 120.517,16.552 120.351,15.552 120.5,14.5 Z"/></g>
<g><path style="opacity:0.004" fill="#000000" d="M 12.5,17.5 C 13.6009,16.4017 14.9343,16.235 16.5,17C 15.2068,17.49 13.8734,17.6567 12.5,17.5 Z"/></g>
<g><path style="opacity:0.998" fill="#f37725" d="M 98.5,18.5 C 101.215,20.0719 104.215,21.0719 107.5,21.5C 112.798,24.4845 118.132,27.4845 123.5,30.5C 126.141,32.8044 128.808,35.1377 131.5,37.5C 131.5,38.1667 131.833,38.5 132.5,38.5C 135.195,41.5256 137.862,44.5256 140.5,47.5C 140.738,49.4044 141.738,50.7377 143.5,51.5C 144.992,55.8178 146.992,59.8178 149.5,63.5C 149.5,64.8333 148.833,65.5 147.5,65.5C 147.5,64.8333 147.167,64.5 146.5,64.5C 146.5,63.1667 145.833,62.5 144.5,62.5C 140.348,57.6817 135.348,54.015 129.5,51.5C 127.574,49.7073 125.241,48.7073 122.5,48.5C 120.208,46.7329 117.542,45.7329 114.5,45.5C 112.485,44.0762 110.152,43.4095 107.5,43.5C 106.081,42.5489 104.415,42.2155 102.5,42.5C 92.6175,39.6836 82.6175,39.0169 72.5,40.5C 71.8826,40.3893 71.3826,40.056 71,39.5C 63.2574,40.4801 55.7574,42.1468 48.5,44.5C 47.209,44.2627 46.209,44.596 45.5,45.5C 44.209,45.2627 43.209,45.596 42.5,46.5C 41.209,46.2627 40.209,46.596 39.5,47.5C 38.5084,47.3284 37.8417,47.6618 37.5,48.5C 36.209,48.2627 35.209,48.596 34.5,49.5C 33.5084,49.3284 32.8417,49.6618 32.5,50.5C 31.5084,50.3284 30.8417,50.6618 30.5,51.5C 29.5084,51.3284 28.8417,51.6618 28.5,52.5C 27.8333,52.5 27.5,52.8333 27.5,53.5C 26.5084,53.3284 25.8417,53.6618 25.5,54.5C 23.9731,54.427 22.9731,55.0937 22.5,56.5C 20.5956,56.7376 19.2623,57.7376 18.5,59.5C 17.8333,59.5 17.5,59.8333 17.5,60.5C 16.8333,60.5 16.5,60.8333 16.5,61.5C 15.8333,61.5 15.5,61.8333 15.5,62.5C 14.8333,62.5 14.5,62.8333 14.5,63.5C 13.8333,63.5 13.5,63.8333 13.5,64.5C 12.8333,64.5 12.5,64.8333 12.5,65.5C 11.1667,65.5 10.5,64.8333 10.5,63.5C 28.8131,27.3419 58.1465,12.3419 98.5,18.5 Z M 144.5,62.5 C 145.833,62.5 146.5,63.1667 146.5,64.5C 145.5,64.1667 144.833,63.5 144.5,62.5 Z"/></g>
<g><path style="opacity:0.008" fill="#7e7f7e" d="M 145.5,16.5 C 146.833,17.1667 146.833,17.8333 145.5,18.5C 145.5,17.8333 145.5,17.1667 145.5,16.5 Z"/></g>
<g><path style="opacity:0.012" fill="#545554" d="M 10.5,17.5 C 11.8333,18.1667 11.8333,18.1667 10.5,17.5 Z"/></g>
<g><path style="opacity:0.012" fill="#ff4800" d="M 98.5,18.5 C 99.2506,17.4265 100.251,17.2599 101.5,18C 100.552,18.4828 99.552,18.6495 98.5,18.5 Z"/></g>
<g><path style="opacity:0.012" fill="#ff6400" d="M 55.5,19.5 C 55.8966,18.475 56.5632,18.3083 57.5,19C 56.9056,19.4643 56.2389,19.631 55.5,19.5 Z"/></g>
<g><path style="opacity:0.008" fill="#ff7200" d="M 102.5,19.5 C 102.897,18.475 103.563,18.3083 104.5,19C 103.906,19.4643 103.239,19.631 102.5,19.5 Z"/></g>
<g><path style="opacity:0.004" fill="#2b2b2b" d="M 144.5,18.5 C 144.833,18.5 145.167,18.5 145.5,18.5C 145.672,19.4916 145.338,20.1583 144.5,20.5C 144.5,19.8333 144.5,19.1667 144.5,18.5 Z"/></g>
<g><path style="opacity:0.008" fill="#ff7e1f" d="M 107.5,21.5 C 107.897,20.475 108.563,20.3083 109.5,21C 108.906,21.4643 108.239,21.631 107.5,21.5 Z"/></g>
<g><path style="opacity:0.008" fill="#7e7f7e" d="M 124.5,20.5 C 123.833,21.1667 123.833,21.1667 124.5,20.5 Z"/></g>
<g><path style="opacity:0.008" fill="#7e7f7e" d="M 143.5,20.5 C 143.833,20.5 144.167,20.5 144.5,20.5C 144.315,21.1701 143.981,21.1701 143.5,20.5 Z"/></g>
<g><path style="opacity:0.995" fill="#626262" d="M 23.5,26.5 C 23.5,27.1667 23.5,27.8333 23.5,28.5C 22.596,29.209 22.2627,30.209 22.5,31.5C 20.8333,32.5 19.5,33.8333 18.5,35.5C 17.5084,35.3284 16.8417,35.6618 16.5,36.5C 15.1667,36.5 13.8333,36.5 12.5,36.5C 11.4863,35.3263 10.153,34.6596 8.5,34.5C 7.97439,32.7697 6.97439,31.4363 5.5,30.5C 5.79511,19.6926 10.7951,16.5259 20.5,21C 21.6087,22.8761 22.6087,24.7095 23.5,26.5 Z"/></g>
<g><path style="opacity:0.012" fill="#fe5500" d="M 110.5,21.5 C 111.833,22.1667 111.833,22.1667 110.5,21.5 Z"/></g>
<g><path style="opacity:0.008" fill="#7e7f7e" d="M 142.5,21.5 C 142.833,21.5 143.167,21.5 143.5,21.5C 143.315,22.1701 142.981,22.1701 142.5,21.5 Z"/></g>
<g><path style="opacity:0.012" fill="#fe5500" d="M 112.5,22.5 C 113.833,23.1667 113.833,23.1667 112.5,22.5 Z"/></g>
<g><path style="opacity:0.008" fill="#7e7f7e" d="M 141.5,22.5 C 141.833,22.5 142.167,22.5 142.5,22.5C 142.315,23.1701 141.981,23.1701 141.5,22.5 Z"/></g>
<g><path style="opacity:0.012" fill="#545554" d="M 4.5,23.5 C 5.83333,24.1667 5.83333,24.1667 4.5,23.5 Z"/></g>
<g><path style="opacity:0.008" fill="#7e7f7e" d="M 23.5,26.5 C 23.3505,25.448 23.5172,24.448 24,23.5C 24.7401,24.7494 24.5735,25.7494 23.5,26.5 Z"/></g>
<g><path style="opacity:0.008" fill="#fe7f00" d="M 44.5,23.5 C 45.8333,24.1667 45.8333,24.1667 44.5,23.5 Z"/></g>
<g><path style="opacity:0.012" fill="#fe5500" d="M 114.5,23.5 C 115.833,24.1667 115.833,24.1667 114.5,23.5 Z"/></g>
<g><path style="opacity:0.004" fill="#000000" d="M 141.5,23.5 C 140.833,24.1667 140.833,24.1667 141.5,23.5 Z"/></g>
<g><path style="opacity:0.008" fill="#fe7f00" d="M 116.5,24.5 C 117.833,25.1667 117.833,25.1667 116.5,24.5 Z"/></g>
<g><path style="opacity:0.012" fill="#393939" d="M 129.5,24.5 C 129.5,24.8333 129.5,25.1667 129.5,25.5C 126.833,25.1667 126.833,24.8333 129.5,24.5 Z"/></g>
<g><path style="opacity:0.012" fill="#545554" d="M 138.5,24.5 C 139.833,25.1667 139.833,25.1667 138.5,24.5 Z"/></g>
<g><path style="opacity:0.004" fill="#000000" d="M 3.5,25.5 C 4.59832,26.6009 4.76498,27.9343 4,29.5C 3.50999,28.2068 3.34332,26.8734 3.5,25.5 Z"/></g>
<g><path style="opacity:0.011" fill="#6d6d6d" d="M 129.5,25.5 C 132.187,25.3359 134.854,25.5026 137.5,26C 134.633,26.8007 131.966,26.6341 129.5,25.5 Z"/></g>
<g><path style="opacity:0.008" fill="#5d5d5d" d="M 23.5,28.5 C 24.8333,29.5 24.8333,30.5 23.5,31.5C 23.5,30.5 23.5,29.5 23.5,28.5 Z"/></g>
<g><path style="opacity:0.008" fill="#fe7f00" d="M 36.5,28.5 C 37.8333,29.1667 37.8333,29.1667 36.5,28.5 Z"/></g>
<g><path style="opacity:0.012" fill="#fe5500" d="M 123.5,29.5 C 124.833,30.1667 124.833,30.1667 123.5,29.5 Z"/></g>
<g><path style="opacity:0.012" fill="#545554" d="M 5.5,30.5 C 4.83333,31.1667 4.83333,31.1667 5.5,30.5 Z"/></g>
<g><path style="opacity:0.008" fill="#fe7f00" d="M 125.5,30.5 C 126.833,31.1667 126.833,31.1667 125.5,30.5 Z"/></g>
<g><path style="opacity:0.008" fill="#7e7f7e" d="M 22.5,31.5 C 22.8333,31.5 23.1667,31.5 23.5,31.5C 23.3147,32.1701 22.9813,32.1701 22.5,31.5 Z"/></g>
<g><path style="opacity:0.004" fill="#000000" d="M 5.5,32.5 C 6.83333,33.1667 6.83333,33.1667 5.5,32.5 Z"/></g>
<g><path style="opacity:0.004" fill="#000000" d="M 21.5,33.5 C 22.8333,34.1667 22.8333,34.1667 21.5,33.5 Z"/></g>
<g><path style="opacity:0.008" fill="#7e7f7e" d="M 8.5,34.5 C 8.5,34.8333 8.5,35.1667 8.5,35.5C 7.82986,35.0187 7.82986,34.6853 8.5,34.5 Z"/></g>
<g><path style="opacity:0.004" fill="#000000" d="M 21.5,34.5 C 20.8333,35.1667 20.8333,35.1667 21.5,34.5 Z"/></g>
<g><path style="opacity:0.004" fill="#000000" d="M 8.5,35.5 C 9.83333,36.1667 9.83333,36.1667 8.5,35.5 Z"/></g>
<g><path style="opacity:0.008" fill="#7e7f7e" d="M 18.5,35.5 C 19.8333,36.1667 19.8333,36.1667 18.5,35.5 Z"/></g>
<g><path style="opacity:0.012" fill="#7e7f7e" d="M 12.5,36.5 C 12.5,36.8333 12.5,37.1667 12.5,37.5C 9.83333,37.1667 9.83333,36.8333 12.5,36.5 Z"/></g>
<g><path style="opacity:0.004" fill="#1f1f1f" d="M 16.5,36.5 C 17.1667,36.5 17.8333,36.5 18.5,36.5C 17.8333,37.8333 17.1667,37.8333 16.5,36.5 Z"/></g>
<g><path style="opacity:0.004" fill="#ff3bff" d="M 131.5,37.5 C 131.56,36.9569 131.893,36.6236 132.5,36.5C 133.773,37.2565 133.773,37.9232 132.5,38.5C 131.833,38.5 131.5,38.1667 131.5,37.5 Z"/></g>
<g><path style="opacity:0.004" fill="#000000" d="M 12.5,37.5 C 13.552,37.3505 14.552,37.5172 15.5,38C 14.2506,38.7401 13.2506,38.5735 12.5,37.5 Z"/></g>
<g><path style="opacity:0.008" fill="#ff7a00" d="M 72.5,40.5 C 77.5111,40.3341 82.5111,40.5007 87.5,41C 82.3158,41.8163 77.3158,41.6497 72.5,40.5 Z"/></g>
<g><path style="opacity:0.008" fill="#ff6b10" d="M 64.5,42.5 C 66.2884,41.3775 68.2884,41.2109 70.5,42C 68.5273,42.4955 66.5273,42.6621 64.5,42.5 Z"/></g>
<g><path style="opacity:0.008" fill="#ff680e" d="M 89.5,42.5 C 91.2884,41.3775 93.2884,41.2109 95.5,42C 93.5273,42.4955 91.5273,42.6621 89.5,42.5 Z"/></g>
<g><path style="opacity:0.016" fill="#ff6f2b" d="M 57.5,43.5 C 58.6009,42.4017 59.9343,42.235 61.5,43C 60.2068,43.49 58.8734,43.6567 57.5,43.5 Z"/></g>
<g><path style="opacity:0.012" fill="#ff6b17" d="M 102.5,42.5 C 101.749,43.5735 100.749,43.7401 99.5,43C 100.448,42.5172 101.448,42.3505 102.5,42.5 Z"/></g>
<g><path style="opacity:0.012" fill="#ff5f00" d="M 52.5,44.5 C 53.6009,43.4017 54.9343,43.235 56.5,44C 55.2068,44.49 53.8734,44.6567 52.5,44.5 Z"/></g>
<g><path style="opacity:0.008" fill="#ff67ff" d="M 107.5,43.5 C 107.5,43.8333 107.5,44.1667 107.5,44.5C 102.167,44.1667 102.167,43.8333 107.5,43.5 Z"/></g>
<g><path style="opacity:0.008" fill="#ff6cff" d="M 48.5,44.5 C 49.552,44.3505 50.552,44.5172 51.5,45C 50.2506,45.7401 49.2506,45.5735 48.5,44.5 Z"/></g>
<g><path style="opacity:0.012" fill="#ff4800" d="M 107.5,44.5 C 108.552,44.3505 109.552,44.5172 110.5,45C 109.251,45.7401 108.251,45.5735 107.5,44.5 Z"/></g>
<g><path style="opacity:0.012" fill="#ff6400" d="M 45.5,46.5 C 45.5,46.1667 45.5,45.8333 45.5,45.5C 48.1667,45.8333 48.1667,46.1667 45.5,46.5 Z"/></g>
<g><path style="opacity:0.012" fill="#ff6400" d="M 114.5,45.5 C 114.103,46.525 113.437,46.6917 112.5,46C 113.094,45.5357 113.761,45.369 114.5,45.5 Z"/></g>
<g><path style="opacity:0.008" fill="#ff6c17" d="M 42.5,47.5 C 42.5,47.1667 42.5,46.8333 42.5,46.5C 43.5,46.5 44.5,46.5 45.5,46.5C 44.791,47.404 43.791,47.7373 42.5,47.5 Z"/></g>
<g><path style="opacity:0.016" fill="#fe7f3e" d="M 141.5,47.5 C 140.833,46.1667 140.833,46.1667 141.5,47.5 Z"/></g>
<g><path style="opacity:0.008" fill="#ff61ff" d="M 39.5,48.5 C 39.5,48.1667 39.5,47.8333 39.5,47.5C 40.5,47.5 41.5,47.5 42.5,47.5C 41.791,48.404 40.791,48.7373 39.5,48.5 Z"/></g>
<g><path style="opacity:0.008" fill="#fe7f00" d="M 141.5,47.5 C 142.833,48.1667 142.833,48.1667 141.5,47.5 Z"/></g>
<g><path style="opacity:0.004" fill="#ff2e00" d="M 37.5,48.5 C 38.1667,48.5 38.8333,48.5 39.5,48.5C 38.8333,49.8333 38.1667,49.8333 37.5,48.5 Z"/></g>
<g><path style="opacity:0.012" fill="#ff4400" d="M 122.5,48.5 C 122.103,49.525 121.437,49.6917 120.5,49C 121.094,48.5357 121.761,48.369 122.5,48.5 Z"/></g>
<g><path style="opacity:0.012" fill="#ff6400" d="M 34.5,50.5 C 34.5,50.1667 34.5,49.8333 34.5,49.5C 37.1667,49.8333 37.1667,50.1667 34.5,50.5 Z"/></g>
<g><path style="opacity:0.012" fill="#fe5500" d="M 123.5,49.5 C 124.833,50.1667 124.833,50.1667 123.5,49.5 Z"/></g>
<g><path style="opacity:0.008" fill="#ff7200" d="M 32.5,51.5 C 32.5,51.1667 32.5,50.8333 32.5,50.5C 33.1667,50.5 33.8333,50.5 34.5,50.5C 34.1583,51.3382 33.4916,51.6716 32.5,51.5 Z"/></g>
<g><path style="opacity:0.008" fill="#fe7f00" d="M 143.5,50.5 C 144.833,51.1667 144.833,51.1667 143.5,50.5 Z"/></g>
<g><path style="opacity:0.008" fill="#fe7f00" d="M 30.5,52.5 C 30.5,52.1667 30.5,51.8333 30.5,51.5C 31.1667,51.5 31.8333,51.5 32.5,51.5C 32.1583,52.3382 31.4916,52.6716 30.5,52.5 Z"/></g>
<g><path style="opacity:0.012" fill="#ff6400" d="M 129.5,51.5 C 129.5,51.8333 129.5,52.1667 129.5,52.5C 126.833,52.1667 126.833,51.8333 129.5,51.5 Z"/></g>
<g><path style="opacity:0.008" fill="#fe7f00" d="M 28.5,53.5 C 28.5,53.1667 28.5,52.8333 28.5,52.5C 29.1667,52.5 29.8333,52.5 30.5,52.5C 30.1583,53.3382 29.4916,53.6716 28.5,53.5 Z"/></g>
<g><path style="opacity:0.012" fill="#fe5500" d="M 129.5,52.5 C 130.833,53.1667 130.833,53.1667 129.5,52.5 Z"/></g>
<g><path style="opacity:0.012" fill="#fe5500" d="M 27.5,53.5 C 27.8333,53.5 28.1667,53.5 28.5,53.5C 28.3147,54.1701 27.9813,54.1701 27.5,53.5 Z"/></g>
<g><path style="opacity:0.004" fill="#ff4518" d="M 25.5,55.5 C 25.5,55.1667 25.5,54.8333 25.5,54.5C 26.1667,54.5 26.8333,54.5 27.5,54.5C 27.1583,55.3382 26.4916,55.6716 25.5,55.5 Z"/></g>
<g><path style="opacity:0.008" fill="#fe7f00" d="M 25.5,55.5 C 24.8333,56.1667 24.8333,56.1667 25.5,55.5 Z"/></g>
<g><path style="opacity:0.016" fill="#fe7f3e" d="M 22.5,56.5 C 23.8333,57.1667 23.8333,57.1667 22.5,56.5 Z"/></g>
<g><path style="opacity:0.008" fill="#fe7f00" d="M 22.5,57.5 C 21.8333,58.1667 21.8333,58.1667 22.5,57.5 Z"/></g>
<g><path style="opacity:0.004" fill="#fe0000" d="M 21.5,58.5 C 20.8333,59.1667 20.8333,59.1667 21.5,58.5 Z"/></g>
<g><path style="opacity:0.012" fill="#fe5500" d="M 18.5,59.5 C 19.8333,60.1667 19.8333,60.1667 18.5,59.5 Z"/></g>
<g><path style="opacity:0.016" fill="#fe7f3e" d="M 17.5,60.5 C 17.8333,60.5 18.1667,60.5 18.5,60.5C 18.3147,61.1701 17.9813,61.1701 17.5,60.5 Z"/></g>
<g><path style="opacity:0.012" fill="#fe5500" d="M 16.5,61.5 C 16.8333,61.5 17.1667,61.5 17.5,61.5C 17.3147,62.1701 16.9813,62.1701 16.5,61.5 Z"/></g>
<g><path style="opacity:0.012" fill="#ff4400" d="M 10.5,63.5 C 9.47498,63.1034 9.30831,62.4368 10,61.5C 10.4643,62.0944 10.631,62.7611 10.5,63.5 Z"/></g>
<g><path style="opacity:0.012" fill="#fe5500" d="M 15.5,62.5 C 15.8333,62.5 16.1667,62.5 16.5,62.5C 16.3147,63.1701 15.9813,63.1701 15.5,62.5 Z"/></g>
<g><path style="opacity:0.012" fill="#ff6400" d="M 149.5,63.5 C 149.369,62.7611 149.536,62.0944 150,61.5C 150.692,62.4368 150.525,63.1034 149.5,63.5 Z"/></g>
<g><path style="opacity:0.012" fill="#fe5500" d="M 14.5,63.5 C 14.8333,63.5 15.1667,63.5 15.5,63.5C 15.3147,64.1701 14.9813,64.1701 14.5,63.5 Z"/></g>
<g><path style="opacity:0.004" fill="#fe0000" d="M 8.5,64.5 C 9.83333,65.1667 9.83333,65.1667 8.5,64.5 Z"/></g>
<g><path style="opacity:0.012" fill="#fe5500" d="M 13.5,64.5 C 13.8333,64.5 14.1667,64.5 14.5,64.5C 14.3147,65.1701 13.9813,65.1701 13.5,64.5 Z"/></g>
<g><path style="opacity:0.004" fill="#fe0000" d="M 12.5,65.5 C 12.8333,65.5 13.1667,65.5 13.5,65.5C 13.3147,66.1701 12.9813,66.1701 12.5,65.5 Z"/></g>
<g><path style="opacity:0.004" fill="#fe0000" d="M 147.5,65.5 C 146.833,66.1667 146.833,66.1667 147.5,65.5 Z"/></g>
<g><path style="opacity:0.004" fill="#fe0000" d="M 12.5,66.5 C 11.8333,67.1667 11.8333,67.1667 12.5,66.5 Z"/></g>
<g><path style="opacity:0.012" fill="#545554" d="M 104.5,70.5 C 104.897,69.475 105.563,69.3083 106.5,70C 105.906,70.4643 105.239,70.631 104.5,70.5 Z"/></g>
<g><path style="opacity:0.801" fill="#515151" d="M 110.5,97.5 C 111.919,98.4511 113.585,98.7845 115.5,98.5C 115.714,100.144 115.38,101.644 114.5,103C 112.527,103.495 110.527,103.662 108.5,103.5C 106.082,102.086 104.415,100.086 103.5,97.5C 103.5,92.5 103.5,87.5 103.5,82.5C 102.5,82.5 101.5,82.5 100.5,82.5C 100.5,80.8333 100.5,79.1667 100.5,77.5C 101.873,77.6567 103.207,77.49 104.5,77C 102.612,73.0292 103.946,70.8625 108.5,70.5C 109.474,72.7427 109.808,75.076 109.5,77.5C 111.5,77.5 113.5,77.5 115.5,77.5C 115.5,79.1667 115.5,80.8333 115.5,82.5C 113.5,82.5 111.5,82.5 109.5,82.5C 109.179,87.6946 109.513,92.6946 110.5,97.5 Z"/></g>
<g><path style="opacity:0.02" fill="#5e5e5e" d="M 7.5,76.5 C 8.94639,75.3871 10.6131,75.2204 12.5,76C 10.8659,76.4935 9.19919,76.6602 7.5,76.5 Z"/></g>
<g><path style="opacity:0.012" fill="#464646" d="M 20.5,76.5 C 21.9464,75.3871 23.6131,75.2204 25.5,76C 23.8659,76.4935 22.1992,76.6602 20.5,76.5 Z"/></g>
<g><path style="opacity:0.016" fill="#434343" d="M 36.5,76.5 C 37.6009,75.4017 38.9343,75.235 40.5,76C 39.2068,76.49 37.8734,76.6567 36.5,76.5 Z"/></g>
<g><path style="opacity:0.012" fill="#5d5d5d" d="M 48.5,76.5 C 49.6009,75.4017 50.9343,75.235 52.5,76C 51.2068,76.49 49.8734,76.6567 48.5,76.5 Z"/></g>
<g><path style="opacity:0.008" fill="#191919" d="M 57.5,76.5 C 57.8966,75.475 58.5632,75.3083 59.5,76C 58.9056,76.4643 58.2389,76.631 57.5,76.5 Z"/></g>
<g><path style="opacity:0.004" fill="#1f1f1f" d="M 63.5,76.5 C 63.8966,75.475 64.5632,75.3083 65.5,76C 64.9056,76.4643 64.2389,76.631 63.5,76.5 Z"/></g>
<g><path style="opacity:0.016" fill="#505050" d="M 74.5,76.5 C 75.9464,75.3871 77.6131,75.2204 79.5,76C 77.8659,76.4935 76.1992,76.6602 74.5,76.5 Z"/></g>
<g><path style="opacity:0.016" fill="#505050" d="M 92.5,76.5 C 93.9464,75.3871 95.6131,75.2204 97.5,76C 95.8659,76.4935 94.1992,76.6602 92.5,76.5 Z"/></g>
<g><path style="opacity:0.02" fill="#444444" d="M 101.5,72.5 C 102.782,73.7082 102.782,75.0416 101.5,76.5C 101.094,75.4425 101.094,74.1092 101.5,72.5 Z"/></g>
<g><path style="opacity:0.016" fill="#5e5e5e" d="M 110.5,71.5 C 111.434,72.5676 111.768,73.901 111.5,75.5C 116.5,76.0031 116.167,76.3364 110.5,76.5C 110.5,74.8333 110.5,73.1667 110.5,71.5 Z"/></g>
<g><path style="opacity:0.016" fill="#353535" d="M 126.5,76.5 C 127.251,75.4265 128.251,75.2599 129.5,76C 128.552,76.4828 127.552,76.6495 126.5,76.5 Z"/></g>
<g><path style="opacity:0.016" fill="#353535" d="M 131.5,76.5 C 132.251,75.4265 133.251,75.2599 134.5,76C 133.552,76.4828 132.552,76.6495 131.5,76.5 Z"/></g>
<g><path style="opacity:0.016" fill="#474747" d="M 146.5,76.5 C 147.601,75.4017 148.934,75.235 150.5,76C 149.207,76.49 147.873,76.6567 146.5,76.5 Z"/></g>
<g><path style="opacity:0.008" fill="#1f1f1f" d="M 156.5,76.5 C 155.761,76.631 155.094,76.4643 154.5,76C 155.437,75.3083 156.103,75.475 156.5,76.5 Z"/></g>
<g><path style="opacity:0.008" fill="#7e7f7e" d="M 153.5,77.5 C 152.833,76.1667 152.833,76.1667 153.5,77.5 Z"/></g>
<g><path style="opacity:0.004" fill="#000000" d="M 5.5,77.5 C 6.65655,85.6563 6.82322,93.9896 6,102.5C 5.50027,94.1733 5.3336,85.84 5.5,77.5 Z"/></g>
<g><path style="opacity:0.886" fill="#505050" d="M 12.5,106.5 C 11.6618,106.842 11.3284,107.508 11.5,108.5C 10.8333,108.5 10.5,108.833 10.5,109.5C 9.83333,109.5 9.5,109.833 9.5,110.5C 8.83333,110.5 8.5,110.833 8.5,111.5C 7.50838,111.328 6.84171,111.662 6.5,112.5C 4.85613,112.286 3.35613,112.62 2,113.5C 1.76791,112.263 1.26791,111.263 0.5,110.5C 1.82726,108.818 3.49393,107.485 5.5,106.5C 6.26791,105.737 6.76791,104.737 7,103.5C 7.49975,94.8397 7.66642,86.1731 7.5,77.5C 9.16667,77.5 10.8333,77.5 12.5,77.5C 12.5,87.1667 12.5,96.8333 12.5,106.5 Z"/></g>
<g><path style="opacity:0.91" fill="#515151" d="M 26.5,95.5 C 26.5,96.8333 27.1667,97.5 28.5,97.5C 31.1024,98.9687 33.269,98.302 35,95.5C 35.4995,89.5092 35.6662,83.5092 35.5,77.5C 37.5,77.5 39.5,77.5 41.5,77.5C 41.5,85.8333 41.5,94.1667 41.5,102.5C 39.2341,102.859 37.4007,102.192 36,100.5C 35.7216,101.416 35.2216,102.082 34.5,102.5C 34.1667,101.167 33.8333,101.167 33.5,102.5C 32.5084,102.328 31.8417,102.662 31.5,103.5C 29.5,103.5 27.5,103.5 25.5,103.5C 25.1583,102.662 24.4916,102.328 23.5,102.5C 21.8196,100.473 20.6529,98.1392 20,95.5C 19.5005,89.5092 19.3338,83.5092 19.5,77.5C 21.5,77.5 23.5,77.5 25.5,77.5C 25.1771,83.69 25.5104,89.69 26.5,95.5 Z M 26.5,95.5 C 27.5,95.8333 28.1667,96.5 28.5,97.5C 27.1667,97.5 26.5,96.8333 26.5,95.5 Z"/></g>
<g><path style="opacity:0.892" fill="#535353" d="M 81.5,80.5 C 81.9802,83.4432 82.9802,86.1098 84.5,88.5C 84.2627,89.791 84.596,90.791 85.5,91.5C 85.3505,92.552 85.5172,93.552 86,94.5C 87.0086,92.9751 87.5086,91.3084 87.5,89.5C 89.0716,85.9736 90.5716,82.307 92,78.5C 93.6995,77.5939 95.5328,77.2606 97.5,77.5C 97.5,78.5 97.5,79.5 97.5,80.5C 96.0687,81.7804 95.4021,83.4471 95.5,85.5C 94.596,86.209 94.2627,87.209 94.5,88.5C 93.0687,89.7804 92.4021,91.4471 92.5,93.5C 91.596,94.209 91.2627,95.209 91.5,96.5C 90.6618,96.8417 90.3284,97.5084 90.5,98.5C 89.0687,99.7804 88.4021,101.447 88.5,103.5C 87.6618,103.842 87.3284,104.508 87.5,105.5C 86.8333,105.5 86.5,105.833 86.5,106.5C 85.6618,106.842 85.3284,107.508 85.5,108.5C 84.8333,108.5 84.5,108.833 84.5,109.5C 83.8333,109.5 83.5,109.833 83.5,110.5C 82.8333,110.5 82.5,110.833 82.5,111.5C 81.8333,111.5 81.5,111.833 81.5,112.5C 79.7839,112.629 78.1172,112.962 76.5,113.5C 75.0152,110.134 76.0152,107.8 79.5,106.5C 80.1667,106.5 80.5,106.167 80.5,105.5C 83.2304,103.194 83.5637,100.861 81.5,98.5C 81.7373,97.209 81.404,96.209 80.5,95.5C 80.6716,94.5084 80.3382,93.8417 79.5,93.5C 79.7373,92.209 79.404,91.209 78.5,90.5C 78.0652,87.8427 77.0652,85.5093 75.5,83.5C 75.7373,82.209 75.404,81.209 74.5,80.5C 74.5,79.5 74.5,78.5 74.5,77.5C 76.5,77.5 78.5,77.5 80.5,77.5C 80.2627,78.791 80.596,79.791 81.5,80.5 Z M 87.5,89.5 C 87.5086,91.3084 87.0086,92.9751 86,94.5C 85.5172,93.552 85.3505,92.552 85.5,91.5C 86.1667,90.8333 86.8333,90.1667 87.5,89.5 Z"/></g>
<g><path style="opacity:0.845" fill="#565656" d="M 139.5,82.5 C 140.299,85.4299 140.632,88.4299 140.5,91.5C 117.843,91.6676 117.843,92.1676 140.5,93C 135.798,93.1717 131.132,93.6717 126.5,94.5C 125.223,95.9217 125.557,96.9217 127.5,97.5C 131.364,98.475 135.364,98.6416 139.5,98C 139.018,99.0084 138.852,100.175 139,101.5C 137.698,102.085 136.531,102.751 135.5,103.5C 130.405,104.09 125.738,103.09 121.5,100.5C 121.068,99.2905 120.401,98.2905 119.5,97.5C 118.64,93.5662 118.307,89.5662 118.5,85.5C 121.573,78.4654 126.907,75.9654 134.5,78C 136.687,79.025 138.354,80.525 139.5,82.5 Z M 127.5,82.5 C 127.5,82.8333 127.5,83.1667 127.5,83.5C 126.833,83.5 126.5,83.8333 126.5,84.5C 126.167,84.5 125.833,84.5 125.5,84.5C 125.5,83.1667 126.167,82.5 127.5,82.5 Z M 132.5,83.5 C 132.5,83.1667 132.5,82.8333 132.5,82.5C 133.833,82.5 134.5,83.1667 134.5,84.5C 134.167,84.5 133.833,84.5 133.5,84.5C 133.5,83.8333 133.167,83.5 132.5,83.5 Z M 127.5,83.5 C 129.167,83.5 130.833,83.5 132.5,83.5C 133.167,83.5 133.5,83.8333 133.5,84.5C 132.486,85.7647 130.986,86.4313 129,86.5C 127.5,86.1667 126,85.8333 124.5,85.5C 124.624,84.8933 124.957,84.56 125.5,84.5C 125.833,85.8333 126.167,85.8333 126.5,84.5C 127.167,84.5 127.5,84.1667 127.5,83.5 Z"/></g>
<g><path style="opacity:0.841" fill="#535353" d="M 156.5,76.5 C 157.5,76.5 158.5,76.5 159.5,76.5C 159.5,78.5 159.5,80.5 159.5,82.5C 157.585,82.2155 155.919,82.5489 154.5,83.5C 153.833,83.5 153.5,83.8333 153.5,84.5C 152.662,84.8417 152.328,85.5084 152.5,86.5C 151.512,91.6405 151.179,96.9738 151.5,102.5C 149.5,102.5 147.5,102.5 145.5,102.5C 145.5,96.8333 145.5,91.1667 145.5,85.5C 146.833,83.5 146.833,81.5 145.5,79.5C 145.97,78.3065 146.97,77.6399 148.5,77.5C 149.994,77.7092 151.161,78.3759 152,79.5C 152.717,78.9558 153.217,78.2891 153.5,77.5C 154.791,77.7373 155.791,77.404 156.5,76.5 Z"/></g>
<g><path style="opacity:0.008" fill="#767676" d="M 13.5,106.5 C 13.3335,96.8276 13.5002,87.1609 14,77.5C 14.8246,87.3422 14.658,97.0089 13.5,106.5 Z"/></g>
<g><path style="opacity:0.008" fill="#777777" d="M 17.5,78.5 C 18.6507,83.6503 18.8174,88.9836 18,94.5C 17.5006,89.1771 17.334,83.8437 17.5,78.5 Z"/></g>
<g><path style="opacity:0.008" fill="#777777" d="M 47.5,112.5 C 46.3405,101.007 46.1739,89.3407 47,77.5C 47.4999,89.1619 47.6665,100.829 47.5,112.5 Z"/></g>
<g><path style="opacity:0.89" fill="#505050" d="M 72.5,86.5 C 72.5,88.8333 72.5,91.1667 72.5,93.5C 71.596,94.209 71.2627,95.209 71.5,96.5C 70.6618,96.8417 70.3284,97.5084 70.5,98.5C 69.8333,98.5 69.5,98.8333 69.5,99.5C 68.8333,99.5 68.5,99.8333 68.5,100.5C 67.8333,100.5 67.5,100.833 67.5,101.5C 66.5084,101.328 65.8417,101.662 65.5,102.5C 64.5084,102.328 63.8417,102.662 63.5,103.5C 59.8084,104.029 56.6417,103.029 54,100.5C 53.5012,104.486 53.3345,108.486 53.5,112.5C 51.8333,112.5 50.1667,112.5 48.5,112.5C 48.5,100.833 48.5,89.1667 48.5,77.5C 50.1667,77.5 51.8333,77.5 53.5,77.5C 53.443,81.1331 54.443,81.2998 56.5,78C 64.6313,75.8955 69.9647,78.7289 72.5,86.5 Z M 63.5,83.5 C 62.453,84.0778 62.6197,84.7445 64,85.5C 64.3988,85.2716 64.5654,84.9382 64.5,84.5C 65.3382,84.8417 65.6716,85.5084 65.5,86.5C 64.1667,88.8333 64.1667,91.1667 65.5,93.5C 65.7373,94.791 65.404,95.791 64.5,96.5C 64.2144,94.0673 63.5477,94.0673 62.5,96.5C 60.8333,96.5 59.1667,96.5 57.5,96.5C 57.1667,95.5 56.5,94.8333 55.5,94.5C 55.1667,91.8333 54.8333,91.8333 54.5,94.5C 53.8442,93.3784 53.5108,92.0451 53.5,90.5C 53.361,88.1175 54.0277,86.1175 55.5,84.5C 55.369,85.2389 55.5357,85.9056 56,86.5C 56.5,85.3333 57.3333,84.5 58.5,84C 57.9056,83.5357 57.2389,83.369 56.5,83.5C 58.9024,81.1093 61.2358,81.1093 63.5,83.5 Z M 62.5,96.5 C 63.1667,96.5 63.8333,96.5 64.5,96.5C 63.6879,97.9931 62.3545,98.6598 60.5,98.5C 59.2739,98.4805 58.2739,98.1471 57.5,97.5C 59.4147,97.7845 61.0813,97.4511 62.5,96.5 Z"/></g>
<g><path style="opacity:0.012" fill="#444444" d="M 116.5,77.5 C 117.598,78.6009 117.765,79.9343 117,81.5C 116.51,80.2068 116.343,78.8734 116.5,77.5 Z"/></g>
<g><path style="opacity:0.004" fill="#131313" d="M 42.5,78.5 C 43.6561,86.3225 43.8228,94.3225 43,102.5C 42.5003,94.5069 42.3336,86.5069 42.5,78.5 Z"/></g>
<g><path style="opacity:0.008" fill="#535353" d="M 73.5,80.5 C 72.475,80.1034 72.3083,79.4368 73,78.5C 73.4643,79.0944 73.631,79.7611 73.5,80.5 Z"/></g>
<g><path style="opacity:0.012" fill="#626262" d="M 82.5,80.5 C 82.1667,80.5 81.8333,80.5 81.5,80.5C 81.8333,77.8333 82.1667,77.8333 82.5,80.5 Z"/></g>
<g><path style="opacity:0.012" fill="#626262" d="M 89.5,78.5 C 90.525,78.8966 90.6917,79.5632 90,80.5C 89.5357,79.9056 89.369,79.2389 89.5,78.5 Z"/></g>
<g><path style="opacity:0.008" fill="#606060" d="M 97.5,80.5 C 98.2679,79.7375 98.7679,78.7375 99,77.5C 99.7737,79.403 99.4404,81.0696 98,82.5C 97.5357,81.9056 97.369,81.2389 97.5,80.5 Z"/></g>
<g><path style="opacity:0.008" fill="#6b6b6b" d="M 145.5,79.5 C 145.5,81.5 145.5,83.5 145.5,85.5C 144.167,83.5 144.167,81.5 145.5,79.5 Z"/></g>
<g><path style="opacity:0.008" fill="#3e3e3e" d="M 73.5,80.5 C 73.8333,80.5 74.1667,80.5 74.5,80.5C 74.5,81.5 74.5,82.5 74.5,83.5C 74.1667,83.5 73.8333,83.5 73.5,83.5C 73.5,82.5 73.5,81.5 73.5,80.5 Z"/></g>
<g><path style="opacity:0.016" fill="#2b2b2b" d="M 82.5,80.5 C 83.525,80.8966 83.6917,81.5632 83,82.5C 82.5357,81.9056 82.369,81.2389 82.5,80.5 Z"/></g>
<g><path style="opacity:0.004" fill="#2b2b2b" d="M 140.5,82.5 C 140.167,82.5 139.833,82.5 139.5,82.5C 139.833,79.8333 140.167,79.8333 140.5,82.5 Z"/></g>
<g><path style="opacity:0.012" fill="#545554" d="M 140.5,82.5 C 141.833,83.1667 141.833,83.1667 140.5,82.5 Z"/></g>
<g><path style="opacity:0.004" fill="#000000" d="M 113.5,83.5 C 114.833,84.1667 114.833,84.1667 113.5,83.5 Z"/></g>
<g><path style="opacity:0.012" fill="#4c4c4c" d="M 154.5,84.5 C 154.5,84.1667 154.5,83.8333 154.5,83.5C 159.833,83.8333 159.833,84.1667 154.5,84.5 Z"/></g>
<g><path style="opacity:0.016" fill="#222222" d="M 73.5,83.5 C 73.7373,84.791 73.404,85.791 72.5,86.5C 72.2627,85.209 72.596,84.209 73.5,83.5 Z"/></g>
<g><path style="opacity:0.004" fill="#1f1f1f" d="M 74.5,83.5 C 74.8333,83.5 75.1667,83.5 75.5,83.5C 75.1667,86.1667 74.8333,86.1667 74.5,83.5 Z"/></g>
<g><path style="opacity:0.004" fill="#191919" d="M 96.5,85.5 C 96.369,84.7611 96.5357,84.0944 97,83.5C 97.6917,84.4368 97.525,85.1034 96.5,85.5 Z"/></g>
<g><path style="opacity:0.004" fill="#0c0c0c" d="M 102.5,97.5 C 101.352,93.0189 101.185,88.3522 102,83.5C 102.499,88.1548 102.666,92.8215 102.5,97.5 Z"/></g>
<g><path style="opacity:0.008" fill="#696969" d="M 110.5,97.5 C 110.334,92.8215 110.501,88.1548 111,83.5C 111.499,87.8206 111.666,92.1539 111.5,96.5C 115.172,97.0447 114.838,97.3781 110.5,97.5 Z"/></g>
<g><path style="opacity:0.012" fill="#626262" d="M 118.5,85.5 C 117.475,85.1034 117.308,84.4368 118,83.5C 118.464,84.0944 118.631,84.7611 118.5,85.5 Z"/></g>
<g><path style="opacity:0.02" fill="#656665" d="M 153.5,84.5 C 153.833,84.5 154.167,84.5 154.5,84.5C 154.315,85.1701 153.981,85.1701 153.5,84.5 Z"/></g>
<g><path style="opacity:0.012" fill="#545554" d="M 75.5,86.5 C 76.8333,87.1667 76.8333,87.1667 75.5,86.5 Z"/></g>
<g><path style="opacity:0.008" fill="#535353" d="M 84.5,88.5 C 84.3505,87.448 84.5172,86.448 85,85.5C 85.7401,86.7494 85.5735,87.7494 84.5,88.5 Z"/></g>
<g><path style="opacity:0.012" fill="#494949" d="M 95.5,85.5 C 95.8333,85.5 96.1667,85.5 96.5,85.5C 96.7373,86.791 96.404,87.791 95.5,88.5C 95.5,87.5 95.5,86.5 95.5,85.5 Z"/></g>
<g><path style="opacity:0.012" fill="#494949" d="M 141.5,84.5 C 142.629,86.6282 142.796,88.9615 142,91.5C 141.503,89.1902 141.337,86.8568 141.5,84.5 Z"/></g>
<g><path style="opacity:0.004" fill="#000000" d="M 73.5,87.5 C 74.6129,88.9464 74.7796,90.6131 74,92.5C 73.5065,90.8659 73.3398,89.1992 73.5,87.5 Z"/></g>
<g><path style="opacity:0.012" fill="#545454" d="M 152.5,86.5 C 153.833,91.8333 153.833,97.1667 152.5,102.5C 152.5,97.1667 152.5,91.8333 152.5,86.5 Z"/></g>
<g><path style="opacity:0.008" fill="#707070" d="M 94.5,88.5 C 94.8333,88.5 95.1667,88.5 95.5,88.5C 95.1667,91.1667 94.8333,91.1667 94.5,88.5 Z"/></g>
<g><path style="opacity:0.008" fill="#707070" d="M 78.5,90.5 C 78.631,91.2389 78.4643,91.9056 78,92.5C 77.3083,91.5632 77.475,90.8966 78.5,90.5 Z"/></g>
<g><path style="opacity:0.016" fill="#3e3f3e" d="M 93.5,91.5 C 94.8333,92.1667 94.8333,92.1667 93.5,91.5 Z"/></g>
<g><path style="opacity:0.012" fill="#3a3a3a" d="M 116.5,86.5 C 117.638,89.3035 117.805,92.3035 117,95.5C 116.502,92.5184 116.335,89.5184 116.5,86.5 Z"/></g>
<g><path style="opacity:0.012" fill="#5f5f5f" d="M 55.5,94.5 C 56.5,94.8333 57.1667,95.5 57.5,96.5C 56.8333,96.5 56.1667,96.5 55.5,96.5C 55.5,95.8333 55.5,95.1667 55.5,94.5 Z"/></g>
<g><path style="opacity:0.012" fill="#393939" d="M 72.5,93.5 C 73.525,93.8966 73.6917,94.5632 73,95.5C 72.5357,94.9056 72.369,94.2389 72.5,93.5 Z"/></g>
<g><path style="opacity:0.004" fill="#191919" d="M 79.5,93.5 C 79.5,94.1667 79.5,94.8333 79.5,95.5C 78.1667,94.8333 78.1667,94.1667 79.5,93.5 Z"/></g>
<g><path style="opacity:0.012" fill="#393939" d="M 92.5,93.5 C 93.525,93.8966 93.6917,94.5632 93,95.5C 92.5357,94.9056 92.369,94.2389 92.5,93.5 Z"/></g>
<g><path style="opacity:0.006" fill="#191919" d="M 64.5,96.5 C 63.8333,96.5 63.1667,96.5 62.5,96.5C 63.5477,94.0673 64.2144,94.0673 64.5,96.5 Z"/></g>
<g><path style="opacity:0.008" fill="#535353" d="M 136.5,96.5 C 136.897,95.475 137.563,95.3083 138.5,96C 137.906,96.4643 137.239,96.631 136.5,96.5 Z"/></g>
<g><path style="opacity:0.012" fill="#393939" d="M 79.5,95.5 C 79.8333,95.5 80.1667,95.5 80.5,95.5C 80.1667,98.1667 79.8333,98.1667 79.5,95.5 Z"/></g>
<g><path style="opacity:0.012" fill="#3a3a3a" d="M 127.5,97.5 C 129.966,96.3659 132.633,96.1993 135.5,97C 132.854,97.4974 130.187,97.6641 127.5,97.5 Z"/></g>
<g><path style="opacity:0.008" fill="#707070" d="M 18.5,96.5 C 19.525,96.8966 19.6917,97.5632 19,98.5C 18.5357,97.9056 18.369,97.2389 18.5,96.5 Z"/></g>
<g><path style="opacity:0.004" fill="#1f1f1f" d="M 71.5,96.5 C 72.8333,97.1667 72.8333,97.8333 71.5,98.5C 71.5,97.8333 71.5,97.1667 71.5,96.5 Z"/></g>
<g><path style="opacity:0.008" fill="#707070" d="M 91.5,96.5 C 92.8333,97.1667 92.8333,97.8333 91.5,98.5C 91.5,97.8333 91.5,97.1667 91.5,96.5 Z"/></g>
<g><path style="opacity:0.012" fill="#545554" d="M 119.5,97.5 C 118.833,98.1667 118.833,98.1667 119.5,97.5 Z"/></g>
<g><path style="opacity:0.012" fill="#545554" d="M 70.5,98.5 C 70.8333,98.5 71.1667,98.5 71.5,98.5C 71.3147,99.1701 70.9813,99.1701 70.5,98.5 Z"/></g>
<g><path style="opacity:0.012" fill="#393939" d="M 102.5,97.5 C 102.833,97.5 103.167,97.5 103.5,97.5C 103.167,100.167 102.833,100.167 102.5,97.5 Z"/></g>
<g><path style="opacity:0.008" fill="#7e7f7e" d="M 69.5,99.5 C 69.8333,99.5 70.1667,99.5 70.5,99.5C 70.3147,100.17 69.9813,100.17 69.5,99.5 Z"/></g>
<g><path style="opacity:0.004" fill="#1f1f1f" d="M 81.5,98.5 C 81.631,99.2389 81.4643,99.9056 81,100.5C 80.3083,99.5632 80.475,98.8966 81.5,98.5 Z"/></g>
<g><path style="opacity:0.008" fill="#707070" d="M 90.5,98.5 C 90.8333,98.5 91.1667,98.5 91.5,98.5C 91.1667,101.167 90.8333,101.167 90.5,98.5 Z"/></g>
<g><path style="opacity:0.008" fill="#575757" d="M 116.5,98.5 C 117.598,99.6009 117.765,100.934 117,102.5C 116.51,101.207 116.343,99.8734 116.5,98.5 Z"/></g>
<g><path style="opacity:0.008" fill="#000000" d="M 68.5,100.5 C 68.8333,100.5 69.1667,100.5 69.5,100.5C 69.3147,101.17 68.9813,101.17 68.5,100.5 Z"/></g>
<g><path style="opacity:0.008" fill="#7e7f7e" d="M 121.5,100.5 C 121.5,100.833 121.5,101.167 121.5,101.5C 120.83,101.019 120.83,100.685 121.5,100.5 Z"/></g>
<g><path style="opacity:0.008" fill="#535353" d="M 140.5,99.5 C 141.525,99.8966 141.692,100.563 141,101.5C 140.536,100.906 140.369,100.239 140.5,99.5 Z"/></g>
<g><path style="opacity:0.012" fill="#545554" d="M 67.5,101.5 C 67.8333,101.5 68.1667,101.5 68.5,101.5C 68.3147,102.17 67.9813,102.17 67.5,101.5 Z"/></g>
<g><path style="opacity:0.016" fill="#3e3f3e" d="M 89.5,101.5 C 90.8333,102.167 90.8333,102.167 89.5,101.5 Z"/></g>
<g><path style="opacity:0.008" fill="#7e7f7e" d="M 121.5,101.5 C 122.833,102.167 122.833,102.167 121.5,101.5 Z"/></g>
<g><path style="opacity:0.008" fill="#7e7f7e" d="M 23.5,102.5 C 22.8333,103.167 22.8333,103.167 23.5,102.5 Z"/></g>
<g><path style="opacity:0.008" fill="#000000" d="M 33.5,102.5 C 33.8333,102.5 34.1667,102.5 34.5,102.5C 34.3147,103.17 33.9813,103.17 33.5,102.5 Z"/></g>
<g><path style="opacity:0.004" fill="#000000" d="M 65.5,103.5 C 65.5,103.167 65.5,102.833 65.5,102.5C 66.1667,102.5 66.8333,102.5 67.5,102.5C 67.1583,103.338 66.4916,103.672 65.5,103.5 Z"/></g>
<g><path style="opacity:0.004" fill="#000000" d="M 151.5,102.5 C 151.833,102.5 152.167,102.5 152.5,102.5C 152.315,103.17 151.981,103.17 151.5,102.5 Z"/></g>
<g><path style="opacity:0.016" fill="#3e3f3e" d="M 25.5,103.5 C 24.8333,104.167 24.8333,104.167 25.5,103.5 Z"/></g>
<g><path style="opacity:0.008" fill="#535353" d="M 31.5,104.5 C 31.5,104.167 31.5,103.833 31.5,103.5C 32.1667,103.5 32.8333,103.5 33.5,103.5C 33.1583,104.338 32.4916,104.672 31.5,104.5 Z"/></g>
<g><path style="opacity:0.008" fill="#666666" d="M 36.5,104.5 C 37.6009,103.402 38.9343,103.235 40.5,104C 39.2068,104.49 37.8734,104.657 36.5,104.5 Z"/></g>
<g><path style="opacity:0.008" fill="#535353" d="M 63.5,104.5 C 63.5,104.167 63.5,103.833 63.5,103.5C 64.1667,103.5 64.8333,103.5 65.5,103.5C 65.1583,104.338 64.4916,104.672 63.5,104.5 Z"/></g>
<g><path style="opacity:0.012" fill="#545554" d="M 88.5,103.5 C 89.8333,104.167 89.8333,104.167 88.5,103.5 Z"/></g>
<g><path style="opacity:0.012" fill="#393939" d="M 108.5,103.5 C 108.5,103.833 108.5,104.167 108.5,104.5C 105.833,104.167 105.833,103.833 108.5,103.5 Z"/></g>
<g><path style="opacity:0.016" fill="#353535" d="M 135.5,104.5 C 135.5,104.167 135.5,103.833 135.5,103.5C 139.5,103.833 139.5,104.167 135.5,104.5 Z"/></g>
<g><path style="opacity:0.02" fill="#474747" d="M 151.5,103.5 C 150.054,104.613 148.387,104.78 146.5,104C 148.134,103.506 149.801,103.34 151.5,103.5 Z"/></g>
<g><path style="opacity:0.008" fill="#535353" d="M 31.5,104.5 C 30.0536,105.613 28.3869,105.78 26.5,105C 28.1341,104.506 29.8008,104.34 31.5,104.5 Z"/></g>
<g><path style="opacity:0.008" fill="#4b4b4b" d="M 63.5,104.5 C 61.7116,105.622 59.7116,105.789 57.5,105C 59.4727,104.505 61.4727,104.338 63.5,104.5 Z"/></g>
<g><path style="opacity:0.007" fill="#2b2b2b" d="M 80.5,105.5 C 79.8333,105.5 79.5,105.833 79.5,106.5C 77.3431,105.947 77.5097,104.947 80,103.5C 80.4643,104.094 80.631,104.761 80.5,105.5 Z"/></g>
<g><path style="opacity:0.008" fill="#535353" d="M 108.5,104.5 C 110.199,104.34 111.866,104.506 113.5,105C 111.613,105.78 109.946,105.613 108.5,104.5 Z"/></g>
<g><path style="opacity:0.008" fill="#646464" d="M 135.5,104.5 C 132.696,105.638 129.696,105.805 126.5,105C 129.482,104.502 132.482,104.335 135.5,104.5 Z"/></g>
<g><path style="opacity:0.024" fill="#2b2b2b" d="M 5.5,106.5 C 2.99908,106.489 2.83242,105.822 5,104.5C 5.46434,105.094 5.63101,105.761 5.5,106.5 Z"/></g>
<g><path style="opacity:0.012" fill="#545554" d="M 87.5,105.5 C 88.8333,106.167 88.8333,106.167 87.5,105.5 Z"/></g>
<g><path style="opacity:0.012" fill="#545554" d="M 12.5,106.5 C 12.8333,106.5 13.1667,106.5 13.5,106.5C 13.3147,107.17 12.9813,107.17 12.5,106.5 Z"/></g>
<g><path style="opacity:0.004" fill="#000000" d="M 86.5,106.5 C 86.8333,106.5 87.1667,106.5 87.5,106.5C 87.6716,107.492 87.3382,108.158 86.5,108.5C 86.5,107.833 86.5,107.167 86.5,106.5 Z"/></g>
<g><path style="opacity:0.012" fill="#545554" d="M 11.5,108.5 C 12.8333,109.167 12.8333,109.167 11.5,108.5 Z"/></g>
<g><path style="opacity:0.012" fill="#545554" d="M 85.5,108.5 C 85.8333,108.5 86.1667,108.5 86.5,108.5C 86.3147,109.17 85.9813,109.17 85.5,108.5 Z"/></g>
<g><path style="opacity:0.008" fill="#7e7f7e" d="M 10.5,109.5 C 10.8333,109.5 11.1667,109.5 11.5,109.5C 11.3147,110.17 10.9813,110.17 10.5,109.5 Z"/></g>
<g><path style="opacity:0.008" fill="#7e7f7e" d="M 73.5,109.5 C 74.525,109.897 74.6917,110.563 74,111.5C 73.5357,110.906 73.369,110.239 73.5,109.5 Z"/></g>
<g><path style="opacity:0.016" fill="#3e3f3e" d="M 84.5,109.5 C 84.8333,109.5 85.1667,109.5 85.5,109.5C 85.3147,110.17 84.9813,110.17 84.5,109.5 Z"/></g>
<g><path style="opacity:0.008" fill="#7e7f7e" d="M 9.5,110.5 C 9.83333,110.5 10.1667,110.5 10.5,110.5C 10.3147,111.17 9.98135,111.17 9.5,110.5 Z"/></g>
<g><path style="opacity:0.016" fill="#3e3f3e" d="M 83.5,110.5 C 83.8333,110.5 84.1667,110.5 84.5,110.5C 84.3147,111.17 83.9813,111.17 83.5,110.5 Z"/></g>
<g><path style="opacity:0.008" fill="#535353" d="M -0.5,110.5 C -0.166667,110.5 0.166667,110.5 0.5,110.5C 0.67158,111.492 0.338246,112.158 -0.5,112.5C -0.5,111.833 -0.5,111.167 -0.5,110.5 Z"/></g>
<g><path style="opacity:0.012" fill="#545554" d="M 8.5,111.5 C 8.83333,111.5 9.16667,111.5 9.5,111.5C 9.31468,112.17 8.98135,112.17 8.5,111.5 Z"/></g>
<g><path style="opacity:0.012" fill="#545554" d="M 82.5,111.5 C 82.8333,111.5 83.1667,111.5 83.5,111.5C 83.3147,112.17 82.9813,112.17 82.5,111.5 Z"/></g>
<g><path style="opacity:0.004" fill="#2b2b2b" d="M 6.5,113.5 C 6.5,113.167 6.5,112.833 6.5,112.5C 7.16667,112.5 7.83333,112.5 8.5,112.5C 8.15829,113.338 7.49162,113.672 6.5,113.5 Z"/></g>
<g><path style="opacity:0.004" fill="#000000" d="M 47.5,112.5 C 47.8333,112.5 48.1667,112.5 48.5,112.5C 48.5,112.833 48.5,113.167 48.5,113.5C 48.1667,113.167 47.8333,112.833 47.5,112.5 Z"/></g>
<g><path style="opacity:0.004" fill="#000000" d="M 81.5,112.5 C 81.8333,112.5 82.1667,112.5 82.5,112.5C 82.3147,113.17 81.9813,113.17 81.5,112.5 Z"/></g>
<g><path style="opacity:0.004" fill="#fe0000" d="M 147.5,112.5 C 148.833,113.167 148.833,113.167 147.5,112.5 Z"/></g>
<g><path style="opacity:0.016" fill="#303030" d="M 6.5,113.5 C 5.74943,114.573 4.74943,114.74 3.5,114C 4.44802,113.517 5.44802,113.351 6.5,113.5 Z"/></g>
<g><path style="opacity:0.016" fill="#4c4c4c" d="M 48.5,113.5 C 50.1992,113.34 51.8659,113.506 53.5,114C 51.6131,114.78 49.9464,114.613 48.5,113.5 Z"/></g>
<g><path style="opacity:0.004" fill="#000000" d="M 76.5,113.5 C 76.5,113.833 76.5,114.167 76.5,114.5C 75.8299,114.019 75.8299,113.685 76.5,113.5 Z"/></g>
<g><path style="opacity:0.016" fill="#3e3f3e" d="M 79.5,113.5 C 80.8333,114.167 80.8333,114.167 79.5,113.5 Z"/></g>
<g><path style="opacity:0.004" fill="#fe0000" d="M 8.5,114.5 C 9.83333,115.167 9.83333,115.167 8.5,114.5 Z"/></g>
<g><path style="opacity:0.004" fill="#ff2e00" d="M 10.5,116.5 C 10.5,117.167 10.5,117.833 10.5,118.5C 9.16667,117.833 9.16667,117.167 10.5,116.5 Z"/></g>
<g><path style="opacity:0.004" fill="#ff2e00" d="M 149.5,116.5 C 150.833,117.167 150.833,117.833 149.5,118.5C 149.5,117.833 149.5,117.167 149.5,116.5 Z"/></g>
<g><path style="opacity:0.004" fill="#ff2e00" d="M 10.5,118.5 C 10.8333,118.5 11.1667,118.5 11.5,118.5C 11.5,119.167 11.5,119.833 11.5,120.5C 10.6618,120.158 10.3284,119.492 10.5,118.5 Z"/></g>
<g><path style="opacity:0.004" fill="#ff2e00" d="M 148.5,118.5 C 148.833,118.5 149.167,118.5 149.5,118.5C 149.672,119.492 149.338,120.158 148.5,120.5C 148.5,119.833 148.5,119.167 148.5,118.5 Z"/></g>
<g><path style="opacity:0.004" fill="#ff2e00" d="M 11.5,120.5 C 11.8333,120.5 12.1667,120.5 12.5,120.5C 12.5,121.167 12.5,121.833 12.5,122.5C 11.6618,122.158 11.3284,121.492 11.5,120.5 Z"/></g>
<g><path style="opacity:0.008" fill="#ff65ff" d="M 147.5,120.5 C 147.833,120.5 148.167,120.5 148.5,120.5C 148.672,121.492 148.338,122.158 147.5,122.5C 147.5,121.833 147.5,121.167 147.5,120.5 Z"/></g>
<g><path style="opacity:0.004" fill="#ff2e00" d="M 12.5,122.5 C 12.8333,122.5 13.1667,122.5 13.5,122.5C 13.5,123.167 13.5,123.833 13.5,124.5C 12.6618,124.158 12.3284,123.492 12.5,122.5 Z"/></g>
<g><path style="opacity:0.004" fill="#ff45ff" d="M 146.5,122.5 C 146.833,122.5 147.167,122.5 147.5,122.5C 147.672,123.492 147.338,124.158 146.5,124.5C 146.5,123.833 146.5,123.167 146.5,122.5 Z"/></g>
<g><path style="opacity:0.016" fill="#fe7f3e" d="M 13.5,124.5 C 13.8333,124.5 14.1667,124.5 14.5,124.5C 14.3147,125.17 13.9813,125.17 13.5,124.5 Z"/></g>
<g><path style="opacity:0.999" fill="#f37725" d="M 24.5,124.5 C 25.6594,126.25 27.326,127.25 29.5,127.5C 30.5137,128.674 31.847,129.34 33.5,129.5C 34.5137,130.674 35.847,131.34 37.5,131.5C 38.9303,132.537 40.597,133.204 42.5,133.5C 45.8544,135.258 49.521,136.258 53.5,136.5C 54.9187,137.451 56.5853,137.784 58.5,137.5C 74.5819,141.523 90.5819,141.19 106.5,136.5C 109.495,136.706 112.162,136.04 114.5,134.5C 120.39,133.216 125.724,130.883 130.5,127.5C 136.832,124.348 142.499,120.181 147.5,115C 148.816,114.472 149.483,114.972 149.5,116.5C 148.662,116.842 148.328,117.508 148.5,118.5C 147.662,118.842 147.328,119.508 147.5,120.5C 146.662,120.842 146.328,121.508 146.5,122.5C 145.662,122.842 145.328,123.508 145.5,124.5C 144.662,124.842 144.328,125.508 144.5,126.5C 143.833,126.5 143.5,126.833 143.5,127.5C 142.662,127.842 142.328,128.508 142.5,129.5C 141.094,129.973 140.427,130.973 140.5,132.5C 139.833,132.5 139.5,132.833 139.5,133.5C 138.662,133.842 138.328,134.508 138.5,135.5C 137.833,135.5 137.5,135.833 137.5,136.5C 136.833,136.5 136.5,136.833 136.5,137.5C 135.833,137.5 135.5,137.833 135.5,138.5C 134.833,138.5 134.5,138.833 134.5,139.5C 133.833,139.5 133.5,139.833 133.5,140.5C 132.833,140.5 132.5,140.833 132.5,141.5C 131.833,141.5 131.5,141.833 131.5,142.5C 130.833,142.5 130.5,142.833 130.5,143.5C 129.833,143.5 129.5,143.833 129.5,144.5C 128.833,144.5 128.5,144.833 128.5,145.5C 126.246,146.124 124.579,147.457 123.5,149.5C 121.973,149.427 120.973,150.094 120.5,151.5C 119.508,151.328 118.842,151.662 118.5,152.5C 117.833,152.5 117.5,152.833 117.5,153.5C 116.508,153.328 115.842,153.662 115.5,154.5C 114.508,154.328 113.842,154.662 113.5,155.5C 112.508,155.328 111.842,155.662 111.5,156.5C 110.508,156.328 109.842,156.662 109.5,157.5C 108.508,157.328 107.842,157.662 107.5,158.5C 105.102,158.259 103.102,158.926 101.5,160.5C 99.901,160.232 98.5676,160.566 97.5,161.5C 95.5853,161.216 93.9187,161.549 92.5,162.5C 84.1667,163.833 75.8333,163.833 67.5,162.5C 64.7273,161.343 61.7273,160.676 58.5,160.5C 57.791,159.596 56.791,159.263 55.5,159.5C 51.3554,157.264 47.022,155.264 42.5,153.5C 31.1218,145.789 21.7885,136.122 14.5,124.5C 14.6716,123.508 14.3382,122.842 13.5,122.5C 13.6716,121.508 13.3382,120.842 12.5,120.5C 12.6716,119.508 12.3382,118.842 11.5,118.5C 11.6716,117.508 11.3382,116.842 10.5,116.5C 10.5173,114.972 11.184,114.472 12.5,115C 15.8194,119.167 19.8194,122.333 24.5,124.5 Z"/></g>
<g><path style="opacity:0.012" fill="#fe5500" d="M 24.5,123.5 C 25.8333,124.167 25.8333,124.167 24.5,123.5 Z"/></g>
<g><path style="opacity:0.008" fill="#7e7f7e" d="M 76.5,114.5 C 77.2389,114.369 77.9056,114.536 78.5,115C 77.5632,115.692 76.8966,115.525 76.5,114.5 Z"/></g>
<g><path style="opacity:0.008" fill="#fe7f00" d="M 26.5,124.5 C 27.8333,125.167 27.8333,125.167 26.5,124.5 Z"/></g>
<g><path style="opacity:0.004" fill="#ff2e00" d="M 145.5,124.5 C 145.833,124.5 146.167,124.5 146.5,124.5C 146.672,125.492 146.338,126.158 145.5,126.5C 145.5,125.833 145.5,125.167 145.5,124.5 Z"/></g>
<g><path style="opacity:0.016" fill="#fe7f3e" d="M 29.5,126.5 C 30.8333,127.167 30.8333,127.167 29.5,126.5 Z"/></g>
<g><path style="opacity:0.008" fill="#fe7f00" d="M 130.5,127.5 C 129.833,126.167 129.833,126.167 130.5,127.5 Z"/></g>
<g><path style="opacity:0.012" fill="#fe5500" d="M 144.5,126.5 C 144.833,126.5 145.167,126.5 145.5,126.5C 145.315,127.17 144.981,127.17 144.5,126.5 Z"/></g>
<g><path style="opacity:0.012" fill="#fe5500" d="M 127.5,127.5 C 128.833,128.167 128.833,128.167 127.5,127.5 Z"/></g>
<g><path style="opacity:0.008" fill="#fe7f00" d="M 143.5,127.5 C 143.833,127.5 144.167,127.5 144.5,127.5C 144.672,128.492 144.338,129.158 143.5,129.5C 143.5,128.833 143.5,128.167 143.5,127.5 Z"/></g>
<g><path style="opacity:0.012" fill="#fe5500" d="M 33.5,128.5 C 34.8333,129.167 34.8333,129.167 33.5,128.5 Z"/></g>
<g><path style="opacity:0.012" fill="#fe5500" d="M 125.5,128.5 C 126.833,129.167 126.833,129.167 125.5,128.5 Z"/></g>
<g><path style="opacity:0.012" fill="#fe5500" d="M 142.5,129.5 C 142.833,129.5 143.167,129.5 143.5,129.5C 143.315,130.17 142.981,130.17 142.5,129.5 Z"/></g>
<g><path style="opacity:0.012" fill="#fe5500" d="M 37.5,131.5 C 37.8966,130.475 38.5632,130.308 39.5,131C 38.9056,131.464 38.2389,131.631 37.5,131.5 Z"/></g>
<g><path style="opacity:0.008" fill="#fe7f00" d="M 141.5,131.5 C 142.833,132.167 142.833,132.167 141.5,131.5 Z"/></g>
<g><path style="opacity:0.016" fill="#ff7e30" d="M 42.5,133.5 C 42.8966,132.475 43.5632,132.308 44.5,133C 43.9056,133.464 43.2389,133.631 42.5,133.5 Z"/></g>
<g><path style="opacity:0.012" fill="#fe5500" d="M 140.5,132.5 C 140.833,132.5 141.167,132.5 141.5,132.5C 141.315,133.17 140.981,133.17 140.5,132.5 Z"/></g>
<g><path style="opacity:0.012" fill="#ff6400" d="M 46.5,134.5 C 46.8966,133.475 47.5632,133.308 48.5,134C 47.9056,134.464 47.2389,134.631 46.5,134.5 Z"/></g>
<g><path style="opacity:0.016" fill="#ff6b25" d="M 114.5,134.5 C 113.448,134.649 112.448,134.483 111.5,134C 112.749,133.26 113.749,133.427 114.5,134.5 Z"/></g>
<g><path style="opacity:0.008" fill="#ff70ff" d="M 106.5,135.5 C 107.601,134.402 108.934,134.235 110.5,135C 109.207,135.49 107.873,135.657 106.5,135.5 Z"/></g>
<g><path style="opacity:0.004" fill="#ff2e00" d="M 139.5,133.5 C 139.833,133.5 140.167,133.5 140.5,133.5C 140.672,134.492 140.338,135.158 139.5,135.5C 139.5,134.833 139.5,134.167 139.5,133.5 Z"/></g>
<g><path style="opacity:0.004" fill="#ff2e00" d="M 53.5,136.5 C 54.6009,135.402 55.9343,135.235 57.5,136C 56.2068,136.49 54.8734,136.657 53.5,136.5 Z"/></g>
<g><path style="opacity:0.012" fill="#ff5515" d="M 106.5,135.5 C 106.5,135.833 106.5,136.167 106.5,136.5C 102.5,136.167 102.5,135.833 106.5,135.5 Z"/></g>
<g><path style="opacity:0.008" fill="#fe7f00" d="M 138.5,135.5 C 138.833,135.5 139.167,135.5 139.5,135.5C 139.315,136.17 138.981,136.17 138.5,135.5 Z"/></g>
<g><path style="opacity:0.004" fill="#ff5012" d="M 58.5,137.5 C 59.6009,136.402 60.9343,136.235 62.5,137C 61.2068,137.49 59.8734,137.657 58.5,137.5 Z"/></g>
<g><path style="opacity:0.012" fill="#ff5a14" d="M 97.5,137.5 C 98.6009,136.402 99.9343,136.235 101.5,137C 100.207,137.49 98.8734,137.657 97.5,137.5 Z"/></g>
<g><path style="opacity:0.012" fill="#fe5500" d="M 137.5,136.5 C 137.833,136.5 138.167,136.5 138.5,136.5C 138.315,137.17 137.981,137.17 137.5,136.5 Z"/></g>
<g><path style="opacity:0.008" fill="#ff5cff" d="M 85.5,138.5 C 88.9758,137.357 92.6425,137.19 96.5,138C 92.8484,138.499 89.1817,138.665 85.5,138.5 Z"/></g>
<g><path style="opacity:0.016" fill="#fe7f3e" d="M 136.5,137.5 C 136.833,137.5 137.167,137.5 137.5,137.5C 137.315,138.17 136.981,138.17 136.5,137.5 Z"/></g>
<g><path style="opacity:0.012" fill="#fe5500" d="M 135.5,138.5 C 135.833,138.5 136.167,138.5 136.5,138.5C 136.315,139.17 135.981,139.17 135.5,138.5 Z"/></g>
<g><path style="opacity:0.008" fill="#fe7f00" d="M 134.5,139.5 C 134.833,139.5 135.167,139.5 135.5,139.5C 135.315,140.17 134.981,140.17 134.5,139.5 Z"/></g>
<g><path style="opacity:0.012" fill="#fe5500" d="M 133.5,140.5 C 133.833,140.5 134.167,140.5 134.5,140.5C 134.315,141.17 133.981,141.17 133.5,140.5 Z"/></g>
<g><path style="opacity:0.012" fill="#fe5500" d="M 132.5,141.5 C 132.833,141.5 133.167,141.5 133.5,141.5C 133.315,142.17 132.981,142.17 132.5,141.5 Z"/></g>
<g><path style="opacity:0.012" fill="#fe5500" d="M 131.5,142.5 C 131.833,142.5 132.167,142.5 132.5,142.5C 132.315,143.17 131.981,143.17 131.5,142.5 Z"/></g>
<g><path style="opacity:0.004" fill="#fe0000" d="M 130.5,143.5 C 130.833,143.5 131.167,143.5 131.5,143.5C 131.315,144.17 130.981,144.17 130.5,143.5 Z"/></g>
<g><path style="opacity:0.012" fill="#fe5500" d="M 129.5,144.5 C 129.833,144.5 130.167,144.5 130.5,144.5C 130.315,145.17 129.981,145.17 129.5,144.5 Z"/></g>
<g><path style="opacity:0.016" fill="#fe7f3e" d="M 128.5,145.5 C 128.833,145.5 129.167,145.5 129.5,145.5C 129.315,146.17 128.981,146.17 128.5,145.5 Z"/></g>
<g><path style="opacity:0.012" fill="#fe5500" d="M 123.5,149.5 C 124.833,150.167 124.833,150.167 123.5,149.5 Z"/></g>
<g><path style="opacity:0.004" fill="#fe0000" d="M 123.5,150.5 C 122.833,151.167 122.833,151.167 123.5,150.5 Z"/></g>
<g><path style="opacity:0.012" fill="#fe5500" d="M 120.5,151.5 C 121.833,152.167 121.833,152.167 120.5,151.5 Z"/></g>
<g><path style="opacity:0.008" fill="#ff65ff" d="M 118.5,153.5 C 118.5,153.167 118.5,152.833 118.5,152.5C 119.167,152.5 119.833,152.5 120.5,152.5C 120.158,153.338 119.492,153.672 118.5,153.5 Z"/></g>
<g><path style="opacity:0.016" fill="#fe7f3e" d="M 42.5,153.5 C 41.8333,154.167 41.8333,154.167 42.5,153.5 Z"/></g>
<g><path style="opacity:0.012" fill="#fe5500" d="M 117.5,153.5 C 117.833,153.5 118.167,153.5 118.5,153.5C 118.315,154.17 117.981,154.17 117.5,153.5 Z"/></g>
<g><path style="opacity:0.004" fill="#ff2e00" d="M 115.5,155.5 C 115.5,155.167 115.5,154.833 115.5,154.5C 116.167,154.5 116.833,154.5 117.5,154.5C 117.158,155.338 116.492,155.672 115.5,155.5 Z"/></g>
<g><path style="opacity:0.008" fill="#ff7200" d="M 113.5,156.5 C 113.5,156.167 113.5,155.833 113.5,155.5C 114.167,155.5 114.833,155.5 115.5,155.5C 115.158,156.338 114.492,156.672 113.5,156.5 Z"/></g>
<g><path style="opacity:0.016" fill="#a7a7a7" d="M 29.5,157.5 C 29.8966,156.475 30.5632,156.308 31.5,157C 30.9056,157.464 30.2389,157.631 29.5,157.5 Z"/></g>
<g><path style="opacity:0.008" fill="#fe7f00" d="M 111.5,157.5 C 111.5,157.167 111.5,156.833 111.5,156.5C 112.167,156.5 112.833,156.5 113.5,156.5C 113.158,157.338 112.492,157.672 111.5,157.5 Z"/></g>
<g><path style="opacity:0.004" fill="#ff2e00" d="M 109.5,158.5 C 109.5,158.167 109.5,157.833 109.5,157.5C 110.167,157.5 110.833,157.5 111.5,157.5C 111.158,158.338 110.492,158.672 109.5,158.5 Z"/></g>
<g><path style="opacity:0.98" fill="#999999" d="M 29.5,157.5 C 35.2638,160.01 38.9305,164.343 40.5,170.5C 40.5,171.5 40.5,172.5 40.5,173.5C 39.5655,174.568 39.2322,175.901 39.5,177.5C 38.6618,177.842 38.3284,178.508 38.5,179.5C 37.0937,179.973 36.427,180.973 36.5,182.5C 35.8333,182.5 35.5,182.833 35.5,183.5C 34.5084,183.328 33.8417,183.662 33.5,184.5C 32.8333,184.5 32.5,184.833 32.5,185.5C 31.209,185.263 30.209,185.596 29.5,186.5C 26.5,186.5 23.5,186.5 20.5,186.5C 17.4181,184.628 14.7514,182.295 12.5,179.5C 12.6716,178.508 12.3382,177.842 11.5,177.5C 11.7373,176.209 11.404,175.209 10.5,174.5C 10.8678,162.151 17.2011,156.485 29.5,157.5 Z"/></g>
<g><path style="opacity:0.004" fill="#ff2e00" d="M 107.5,158.5 C 108.167,158.5 108.833,158.5 109.5,158.5C 108.833,159.833 108.167,159.833 107.5,158.5 Z"/></g>
<g><path style="opacity:0.012" fill="#ff6400" d="M 55.5,159.5 C 55.1034,160.525 54.4368,160.692 53.5,160C 54.0944,159.536 54.7611,159.369 55.5,159.5 Z"/></g>
<g><path style="opacity:0.012" fill="#ff6400" d="M 104.5,160.5 C 104.897,159.475 105.563,159.308 106.5,160C 105.906,160.464 105.239,160.631 104.5,160.5 Z"/></g>
<g><path style="opacity:0.016" fill="#ff7e30" d="M 58.5,160.5 C 58.1034,161.525 57.4368,161.692 56.5,161C 57.0944,160.536 57.7611,160.369 58.5,160.5 Z"/></g>
<g><path style="opacity:0.008" fill="#ff7e1f" d="M 101.5,160.5 C 102.239,160.369 102.906,160.536 103.5,161C 102.563,161.692 101.897,161.525 101.5,160.5 Z"/></g>
<g><path style="opacity:0.012" fill="#ff5515" d="M 97.5,162.5 C 97.5,162.167 97.5,161.833 97.5,161.5C 101.5,161.833 101.5,162.167 97.5,162.5 Z"/></g>
<g><path style="opacity:0.008" fill="#ff62ff" d="M 67.5,162.5 C 66.0536,163.613 64.3869,163.78 62.5,163C 64.1341,162.506 65.8008,162.34 67.5,162.5 Z"/></g>
<g><path style="opacity:0.008" fill="#ff5dff" d="M 92.5,162.5 C 94.1667,162.5 95.8333,162.5 97.5,162.5C 95.8333,163.833 94.1667,163.833 92.5,162.5 Z"/></g>
<g><path style="opacity:0.016" fill="#ff762f" d="M 68.5,164.5 C 69.6009,163.402 70.9343,163.235 72.5,164C 71.2068,164.49 69.8734,164.657 68.5,164.5 Z"/></g>
<g><path style="opacity:0.012" fill="#ff6b11" d="M 86.5,164.5 C 87.9464,163.387 89.6131,163.22 91.5,164C 89.8659,164.494 88.1992,164.66 86.5,164.5 Z"/></g>
<g><path style="opacity:0.008" fill="#b0b0b0" d="M 40.5,170.5 C 40.3433,169.127 40.51,167.793 41,166.5C 41.765,168.066 41.5983,169.399 40.5,170.5 Z"/></g>
<g><path style="opacity:0.008" fill="#5d5d5d" d="M 8.5,170.5 C 9.57346,171.251 9.74012,172.251 9,173.5C 8.51722,172.552 8.35055,171.552 8.5,170.5 Z"/></g>
<g><path style="opacity:0.008" fill="#7e7f7e" d="M 40.5,173.5 C 41.8333,174.833 41.8333,176.167 40.5,177.5C 40.5,176.167 40.5,174.833 40.5,173.5 Z"/></g>
<g><path style="opacity:0.008" fill="#898989" d="M 10.5,174.5 C 10.5,175.5 10.5,176.5 10.5,177.5C 9.16667,176.5 9.16667,175.5 10.5,174.5 Z"/></g>
<g><path style="opacity:0.008" fill="#a7a7a7" d="M 10.5,177.5 C 10.8333,177.5 11.1667,177.5 11.5,177.5C 11.5,178.167 11.5,178.833 11.5,179.5C 10.6618,179.158 10.3284,178.492 10.5,177.5 Z"/></g>
<g><path style="opacity:0.008" fill="#8d8d8d" d="M 39.5,177.5 C 39.8333,177.5 40.1667,177.5 40.5,177.5C 40.6716,178.492 40.3382,179.158 39.5,179.5C 39.5,178.833 39.5,178.167 39.5,177.5 Z"/></g>
<g><path style="opacity:0.004" fill="#fefffe" d="M 11.5,179.5 C 11.8333,179.5 12.1667,179.5 12.5,179.5C 12.3147,180.17 11.9813,180.17 11.5,179.5 Z"/></g>
<g><path style="opacity:0.012" fill="#a9aaa9" d="M 38.5,179.5 C 38.8333,179.5 39.1667,179.5 39.5,179.5C 39.3147,180.17 38.9813,180.17 38.5,179.5 Z"/></g>
<g><path style="opacity:0.008" fill="#7e7f7e" d="M 12.5,181.5 C 13.8333,182.167 13.8333,182.167 12.5,181.5 Z"/></g>
<g><path style="opacity:0.004" fill="#fefffe" d="M 37.5,181.5 C 38.8333,182.167 38.8333,182.167 37.5,181.5 Z"/></g>
<g><path style="opacity:0.012" fill="#a9aaa9" d="M 36.5,182.5 C 36.8333,182.5 37.1667,182.5 37.5,182.5C 37.3147,183.17 36.9813,183.17 36.5,182.5 Z"/></g>
<g><path style="opacity:0.008" fill="#7e7f7e" d="M 35.5,183.5 C 35.8333,183.5 36.1667,183.5 36.5,183.5C 36.3147,184.17 35.9813,184.17 35.5,183.5 Z"/></g>
<g><path style="opacity:0.006" fill="#fefffe" d="M 33.5,185.5 C 33.5,185.167 33.5,184.833 33.5,184.5C 34.1667,184.5 34.8333,184.5 35.5,184.5C 35.1583,185.338 34.4916,185.672 33.5,185.5 Z"/></g>
<g><path style="opacity:0.012" fill="#a9aaa9" d="M 32.5,185.5 C 32.8333,185.5 33.1667,185.5 33.5,185.5C 33.3147,186.17 32.9813,186.17 32.5,185.5 Z"/></g>
<g><path style="opacity:0.012" fill="#6d6d6d" d="M 18.5,187.5 C 18.8417,186.662 19.5084,186.328 20.5,186.5C 20.5,186.833 20.5,187.167 20.5,187.5C 19.8333,187.5 19.1667,187.5 18.5,187.5 Z"/></g>
<g><path style="opacity:0.012" fill="#909090" d="M 29.5,187.5 C 29.5,187.167 29.5,186.833 29.5,186.5C 30.5,186.5 31.5,186.5 32.5,186.5C 32.5,186.833 32.5,187.167 32.5,187.5C 31.5,187.5 30.5,187.5 29.5,187.5 Z"/></g>
</svg>
