<?xml version="1.0" encoding="UTF-8"?>
<!DOCTYPE svg PUBLIC "-//W3C//DTD SVG 1.1//EN" "http://www.w3.org/Graphics/SVG/1.1/DTD/svg11.dtd">
<svg xmlns="http://www.w3.org/2000/svg" version="1.1" width="1200px" height="1200px" style="shape-rendering:geometricPrecision; text-rendering:geometricPrecision; image-rendering:optimizeQuality; fill-rule:evenodd; clip-rule:evenodd" xmlns:xlink="http://www.w3.org/1999/xlink">
<g><path style="opacity:1" fill="#3e5ba9" d="M 1067.5,965.5 C 1030.93,844.687 981.431,729.354 919,619.5C 831.823,464.085 725.323,322.918 599.5,196C 552.662,150.126 502.328,108.792 448.5,72C 431.768,61.304 414.768,51.1374 397.5,41.5C 538.37,-7.97435 678.703,-6.14102 818.5,47C 970.775,109.942 1080.28,216.775 1147,367.5C 1198.38,492.818 1207.38,621.151 1174,752.5C 1152.72,831.062 1117.22,902.062 1067.5,965.5 Z"/></g>
<g><path style="opacity:0.999" fill="#fefefe" d="M 397.5,41.5 C 414.768,51.1374 431.768,61.304 448.5,72C 502.328,108.792 552.662,150.126 599.5,196C 725.323,322.918 831.823,464.085 919,619.5C 981.431,729.354 1030.93,844.687 1067.5,965.5C 1017.15,1029.53 956.485,1081.2 885.5,1120.5C 844.355,928.511 771.855,749.511 668,583.5C 654.114,561.617 639.448,540.284 624,519.5C 570.754,579.076 524.088,643.41 484,712.5C 420.422,821.546 371.422,936.88 337,1058.5C 331.362,1080.05 326.196,1101.72 321.5,1123.5C 257.006,1089.36 200.673,1044.7 152.5,989.5C 223.012,789.387 325.178,608.054 459,445.5C 477.315,425.017 495.815,404.684 514.5,384.5C 435.931,298.381 345.931,227.214 244.5,171C 232.601,164.883 220.601,159.05 208.5,153.5C 264.026,104.211 327.026,66.8772 397.5,41.5 Z"/></g>
<g><path style="opacity:1" fill="#9f1d20" d="M 208.5,153.5 C 220.601,159.05 232.601,164.883 244.5,171C 345.931,227.214 435.931,298.381 514.5,384.5C 495.815,404.684 477.315,425.017 459,445.5C 325.178,608.054 223.012,789.387 152.5,989.5C 43.3634,861.238 -4.46991,712.571 9,543.5C 20.4043,429.896 60.4043,327.896 129,237.5C 137.991,226.013 147.491,215.013 157.5,204.5C 159.914,203.089 161.581,201.089 162.5,198.5C 164.5,195.833 166.833,193.5 169.5,191.5C 177.167,184.5 184.5,177.167 191.5,169.5C 196.537,163.462 202.203,158.129 208.5,153.5 Z"/></g>
<g><path style="opacity:0.937" fill="#c87877" d="M 191.5,169.5 C 184.5,177.167 177.167,184.5 169.5,191.5C 169.369,190.761 169.536,190.094 170,189.5C 176.756,182.239 183.922,175.572 191.5,169.5 Z"/></g>
<g><path style="opacity:0.894" fill="#cf8787" d="M 162.5,198.5 C 161.581,201.089 159.914,203.089 157.5,204.5C 158.419,201.911 160.086,199.911 162.5,198.5 Z"/></g>
<g><path style="opacity:1" fill="#9f1d20" d="M 885.5,1120.5 C 747.072,1193.64 601.739,1211.47 449.5,1174C 404.656,1162.4 361.989,1145.57 321.5,1123.5C 326.196,1101.72 331.362,1080.05 337,1058.5C 371.422,936.88 420.422,821.546 484,712.5C 524.088,643.41 570.754,579.076 624,519.5C 639.448,540.284 654.114,561.617 668,583.5C 771.855,749.511 844.355,928.511 885.5,1120.5 Z"/></g>
</svg>
