<?xml version="1.0" encoding="UTF-8"?>
<!DOCTYPE svg PUBLIC "-//W3C//DTD SVG 1.1//EN" "http://www.w3.org/Graphics/SVG/1.1/DTD/svg11.dtd">
<svg xmlns="http://www.w3.org/2000/svg" version="1.1" width="724px" height="561px" style="shape-rendering:geometricPrecision; text-rendering:geometricPrecision; image-rendering:optimizeQuality; fill-rule:evenodd; clip-rule:evenodd" xmlns:xlink="http://www.w3.org/1999/xlink">
<g><path style="opacity:0.999" fill="#b7b9bd" d="M 458.5,10.5 C 411.284,43.1952 363.617,75.3619 315.5,107C 314.748,107.671 314.414,108.504 314.5,109.5C 268.743,119.382 227.743,138.882 191.5,168C 175.566,181.749 162.899,197.915 153.5,216.5C 106.098,246.858 59.4317,278.191 13.5,310.5C 5.49409,290.819 0.827424,270.485 -0.5,249.5C -0.5,245.833 -0.5,242.167 -0.5,238.5C 0.288861,226.314 2.28886,214.314 5.5,202.5C 102.471,137.677 199.471,72.8435 296.5,8C 297.252,7.32924 297.586,6.4959 297.5,5.5C 351.397,0.185385 405.064,1.85205 458.5,10.5 Z"/></g>
<g><path style="opacity:0.995" fill="#bdc0c3" d="M 297.5,5.5 C 297.586,6.4959 297.252,7.32924 296.5,8C 199.471,72.8435 102.471,137.677 5.5,202.5C 13.6416,172.546 27.8083,145.879 48,122.5C 87.988,79.7404 135.821,48.907 191.5,30C 225.981,18.071 261.314,9.90436 297.5,5.5 Z"/></g>
<g><path style="opacity:0.993" fill="#b0b2b6" d="M 458.5,10.5 C 490.741,16.8027 522.074,26.136 552.5,38.5C 523.01,58.4703 493.343,78.3037 463.5,98C 464.056,98.3826 464.389,98.8826 464.5,99.5C 413.901,94.5621 363.901,97.8955 314.5,109.5C 314.414,108.504 314.748,107.671 315.5,107C 363.617,75.3619 411.284,43.1952 458.5,10.5 Z"/></g>
<g><path style="opacity:0.991" fill="#aaabb0" d="M 552.5,38.5 C 574.588,48.0402 595.588,59.3735 615.5,72.5C 613.763,74.5497 611.763,76.383 609.5,78C 590.596,90.2753 571.929,102.775 553.5,115.5C 524.454,106.825 494.787,101.492 464.5,99.5C 464.389,98.8826 464.056,98.3826 463.5,98C 493.343,78.3037 523.01,58.4703 552.5,38.5 Z"/></g>
<g><path style="opacity:0.989" fill="#a4a5aa" d="M 615.5,72.5 C 634.576,84.2323 651.576,98.5657 666.5,115.5C 652.423,126.384 637.756,136.551 622.5,146C 621.402,146.77 621.402,147.603 622.5,148.5C 601.266,134.052 578.266,123.052 553.5,115.5C 571.929,102.775 590.596,90.2753 609.5,78C 611.763,76.383 613.763,74.5497 615.5,72.5 Z"/></g>
<g><path style="opacity:0.987" fill="#9f9fa5" d="M 666.5,115.5 C 682.106,131.36 694.773,149.36 704.5,169.5C 703.448,169.351 702.448,169.517 701.5,170C 688.977,178.758 676.31,187.258 663.5,195.5C 653.103,177.095 639.436,161.428 622.5,148.5C 621.402,147.603 621.402,146.77 622.5,146C 637.756,136.551 652.423,126.384 666.5,115.5 Z"/></g>
<g><path style="opacity:1" fill="#2369bd" d="M 536.5,151.5 C 507.833,181.167 479.167,210.833 450.5,240.5C 441.167,240.5 431.833,240.5 422.5,240.5C 422.5,246.5 422.5,252.5 422.5,258.5C 421.676,262.312 421.176,266.312 421,270.5C 379.604,312.395 338.437,354.395 297.5,396.5C 297.5,314.833 297.5,233.167 297.5,151.5C 377.167,151.5 456.833,151.5 536.5,151.5 Z"/></g>
<g><path style="opacity:0.987" fill="#98999f" d="M 704.5,169.5 C 716.793,194.011 722.46,220.011 721.5,247.5C 707.167,256.833 692.833,266.167 678.5,275.5C 680.602,247.438 675.602,220.771 663.5,195.5C 676.31,187.258 688.977,178.758 701.5,170C 702.448,169.517 703.448,169.351 704.5,169.5 Z"/></g>
<g><path style="opacity:0.999" fill="#1e64b6" d="M 536.5,151.5 C 572.723,151.622 604.223,163.622 631,187.5C 644.603,203.042 653.103,221.042 656.5,241.5C 655.325,241.281 654.325,241.614 653.5,242.5C 596.147,301.852 538.481,360.852 480.5,419.5C 477.032,415.859 473.698,412.026 470.5,408C 467.341,404.918 463.675,402.584 459.5,401C 446.546,399.623 433.546,399.123 420.5,399.5C 420.5,408.5 420.5,417.5 420.5,426.5C 420.5,445.167 420.5,463.833 420.5,482.5C 420.5,507.833 420.5,533.167 420.5,558.5C 379.5,558.5 338.5,558.5 297.5,558.5C 297.5,542.833 297.5,527.167 297.5,511.5C 363.139,444.193 428.806,376.86 494.5,309.5C 521.131,306.702 532.631,292.036 529,265.5C 525.869,253.035 518.035,245.202 505.5,242C 487.201,240.614 468.867,240.114 450.5,240.5C 479.167,210.833 507.833,181.167 536.5,151.5 Z"/></g>
<g><path style="opacity:0.995" fill="#b0b2b6" d="M 153.5,216.5 C 139.218,246.313 138.885,276.313 152.5,306.5C 119.833,328.167 87.1667,349.833 54.5,371.5C 37.1181,353.758 23.4514,333.425 13.5,310.5C 59.4317,278.191 106.098,246.858 153.5,216.5 Z"/></g>
<g><path style="opacity:0.994" fill="#1b61b2" d="M 656.5,241.5 C 662.493,317.338 628.16,362.505 553.5,377C 566.921,381.073 579.588,386.573 591.5,393.5C 596.066,396.557 600.233,400.224 604,404.5C 606.857,408.898 609.691,413.232 612.5,417.5C 622.26,433.258 631.593,449.258 640.5,465.5C 640.046,468.14 638.879,470.473 637,472.5C 609.633,500.7 582.133,528.7 554.5,556.5C 538.245,526.325 522.245,495.991 506.5,465.5C 501.281,454.73 495.781,444.063 490,433.5C 487.63,429.403 484.797,425.736 481.5,422.5C 480.89,421.609 480.557,420.609 480.5,419.5C 538.481,360.852 596.147,301.852 653.5,242.5C 654.325,241.614 655.325,241.281 656.5,241.5 Z"/></g>
<g><path style="opacity:0.98" fill="#919198" d="M 721.5,247.5 C 720.888,279.614 712.055,309.281 695,336.5C 673.245,369.422 645.745,396.422 612.5,417.5C 609.691,413.232 606.857,408.898 604,404.5C 600.233,400.224 596.066,396.557 591.5,393.5C 627.2,377.3 653.033,351.3 669,315.5C 673.753,302.492 676.919,289.158 678.5,275.5C 692.833,266.167 707.167,256.833 721.5,247.5 Z"/></g>
<g><path style="opacity:1" fill="#2066b9" d="M 422.5,258.5 C 422.694,276.079 422.361,293.079 421.5,309.5C 445.833,309.5 470.167,309.5 494.5,309.5C 428.806,376.86 363.139,444.193 297.5,511.5C 297.5,501.833 297.5,492.167 297.5,482.5C 297.5,458.5 297.5,434.5 297.5,410.5C 297.5,405.833 297.5,401.167 297.5,396.5C 338.437,354.395 379.604,312.395 421,270.5C 421.176,266.312 421.676,262.312 422.5,258.5 Z"/></g>
<g><path style="opacity:0.994" fill="#aaabb0" d="M 152.5,306.5 C 162.413,325.763 175.747,342.43 192.5,356.5C 163.709,376.068 134.709,395.402 105.5,414.5C 86.4432,402.791 69.4432,388.457 54.5,371.5C 87.1667,349.833 119.833,328.167 152.5,306.5 Z"/></g>
<g><path style="opacity:0.993" fill="#a4a5aa" d="M 192.5,356.5 C 211.054,371.948 231.388,384.615 253.5,394.5C 251.692,394.491 250.025,394.991 248.5,396C 222.245,414.283 195.578,431.783 168.5,448.5C 146.12,439.481 125.12,428.147 105.5,414.5C 134.709,395.402 163.709,376.068 192.5,356.5 Z"/></g>
<g><path style="opacity:0.993" fill="#9e9fa4" d="M 253.5,394.5 C 267.942,400.425 282.609,405.759 297.5,410.5C 297.5,434.5 297.5,458.5 297.5,482.5C 252.77,477.236 209.77,465.903 168.5,448.5C 195.578,431.783 222.245,414.283 248.5,396C 250.025,394.991 251.692,394.491 253.5,394.5 Z"/></g>
<g><path style="opacity:0.99" fill="#93939a" d="M 481.5,422.5 C 484.797,425.736 487.63,429.403 490,433.5C 495.781,444.063 501.281,454.73 506.5,465.5C 478.354,473.729 449.687,479.396 420.5,482.5C 420.5,463.833 420.5,445.167 420.5,426.5C 441.076,426.565 461.409,425.232 481.5,422.5 Z"/></g>
<g><path style="opacity:0.998" fill="#185dad" d="M 640.5,465.5 C 659.311,495.772 677.644,526.439 695.5,557.5C 649.174,558.919 602.841,559.419 556.5,559C 555.619,558.292 554.953,557.458 554.5,556.5C 582.133,528.7 609.633,500.7 637,472.5C 638.879,470.473 640.046,468.14 640.5,465.5 Z"/></g>
</svg>
