<?xml version="1.0" standalone="no"?>
<!DOCTYPE svg PUBLIC "-//W3C//DTD SVG 20010904//EN"
 "http://www.w3.org/TR/2001/REC-SVG-20010904/DTD/svg10.dtd">
<svg version="1.0" xmlns="http://www.w3.org/2000/svg"
 width="512.000000pt" height="340.000000pt" viewBox="0 0 512.000000 340.000000"
 preserveAspectRatio="xMidYMid meet">

<g transform="translate(0.000000,340.000000) scale(0.100000,-0.100000)"
fill="#000000" stroke="none">
<path d="M0 1700 l0 -1700 2560 0 2560 0 0 1700 0 1700 -2560 0 -2560 0 0
-1700z m4845 1530 c10 -31 52 -58 111 -70 35 -7 54 -16 54 -26 0 -29 -39 -115
-73 -161 -32 -45 -114 -120 -121 -112 -2 2 0 31 4 64 6 50 26 109 67 203 3 6
0 12 -6 12 -17 0 -68 -113 -82 -178 -6 -30 -9 -70 -7 -88 4 -33 1 -37 -83 -94
-106 -73 -190 -148 -230 -207 -41 -59 -69 -146 -114 -349 -68 -308 -147 -617
-187 -734 -114 -329 -248 -546 -420 -675 -45 -34 -63 -43 -68 -33 -4 7 -10 50
-14 96 -6 79 -21 132 -37 132 -4 0 -22 -37 -39 -82 -41 -107 -121 -264 -178
-352 -25 -39 -93 -118 -151 -176 -116 -115 -208 -176 -346 -227 -83 -32 -183
-58 -190 -51 -2 2 23 42 56 88 139 196 229 391 268 577 22 107 39 283 27 283
-19 0 -59 -37 -81 -74 -13 -23 -40 -86 -60 -141 -40 -112 -83 -185 -119 -205
-35 -18 -368 -7 -556 19 -249 35 -453 46 -585 33 -198 -21 -315 -68 -575 -232
-209 -131 -353 -196 -525 -236 -84 -20 -340 -27 -398 -11 -37 10 -28 21 69 88
76 53 104 85 104 119 0 19 -6 20 -97 20 -96 0 -173 13 -173 29 0 4 8 15 18 23
62 55 188 81 465 98 351 21 377 35 569 320 152 224 346 375 668 520 144 64
254 97 502 150 334 71 504 129 718 242 269 143 399 285 645 708 204 352 331
497 512 588 103 52 199 72 388 81 117 6 181 13 205 24 47 21 58 20 65 -3z
m-775 -2346 c22 -105 70 -242 100 -283 l21 -30 -37 -7 c-40 -7 -155 9 -225 32
-26 8 -64 30 -85 48 l-38 33 28 57 c26 53 202 253 213 242 2 -2 13 -44 23 -92z"/>
<path d="M4763 3168 c-93 -100 -199 -277 -173 -293 4 -3 24 27 44 67 19 40 66
111 103 157 90 112 97 121 86 121 -6 0 -32 -24 -60 -52z"/>
<path d="M4775 3122 c-57 -77 -112 -182 -121 -229 -10 -49 13 -41 27 9 16 61
51 127 107 199 62 82 66 89 50 89 -7 -1 -35 -31 -63 -68z"/>
<path d="M4808 3097 c-41 -70 -78 -172 -78 -217 0 -51 17 -33 28 28 11 60 35
118 86 205 19 32 24 47 14 47 -7 0 -30 -28 -50 -63z"/>
<path d="M4340 3064 c-19 -8 -43 -23 -53 -32 -17 -15 -57 -83 -57 -96 0 -14
64 -36 104 -36 88 0 154 57 159 136 l2 39 -60 2 c-37 2 -73 -3 -95 -13z"/>
</g>
</svg>
