<?xml version="1.0" encoding="UTF-8"?>
<!DOCTYPE svg PUBLIC "-//W3C//DTD SVG 1.1//EN" "http://www.w3.org/Graphics/SVG/1.1/DTD/svg11.dtd">
<svg xmlns="http://www.w3.org/2000/svg" version="1.1" width="512px" height="512px" style="shape-rendering:geometricPrecision; text-rendering:geometricPrecision; image-rendering:optimizeQuality; fill-rule:evenodd; clip-rule:evenodd" xmlns:xlink="http://www.w3.org/1999/xlink">
<g><path style="opacity:0.987" fill="#5fb14e" d="M 256.5,17.5 C 255.423,24.0261 255.589,30.6928 257,37.5C 257.778,85.1817 258.611,132.848 259.5,180.5C 257.827,179.657 256.66,178.324 256,176.5C 243.524,138.737 230.857,101.071 218,63.5C 217.623,62.0577 216.79,61.0577 215.5,60.5C 224.828,50.3388 234.661,40.6721 245,31.5C 249.745,25.6732 252.578,19.0066 253.5,11.5C 255.038,13.2433 256.038,15.2433 256.5,17.5 Z"/></g>
<g><path style="opacity:0.992" fill="#46a037" d="M 256.5,17.5 C 261.134,26.7634 266.301,35.7634 272,44.5C 301.374,71.9124 324.374,103.912 341,140.5C 345.077,149.982 348.577,159.649 351.5,169.5C 350.666,170.748 349.333,171.415 347.5,171.5C 318.742,175.703 290.076,180.37 261.5,185.5C 260.5,205.822 260.167,226.156 260.5,246.5C 259.503,224.673 259.169,202.673 259.5,180.5C 258.611,132.848 257.778,85.1817 257,37.5C 255.589,30.6928 255.423,24.0261 256.5,17.5 Z"/></g>
<g><path style="opacity:0.994" fill="#56ad46" d="M 215.5,60.5 C 216.79,61.0577 217.623,62.0577 218,63.5C 230.857,101.071 243.524,138.737 256,176.5C 256.66,178.324 257.827,179.657 259.5,180.5C 259.169,202.673 259.503,224.673 260.5,246.5C 260.5,258.5 260.5,270.5 260.5,282.5C 259.21,283.058 258.377,284.058 258,285.5C 235.931,221.96 214.265,158.294 193,94.5C 192.329,93.7476 191.496,93.4142 190.5,93.5C 198.481,82.1923 206.814,71.1923 215.5,60.5 Z"/></g>
<g><path style="opacity:0.995" fill="#4fa941" d="M 190.5,93.5 C 191.496,93.4142 192.329,93.7476 193,94.5C 214.265,158.294 235.931,221.96 258,285.5C 258.377,284.058 259.21,283.058 260.5,282.5C 260.433,295.842 260.1,309.175 259.5,322.5C 259.151,337.853 258.485,353.186 257.5,368.5C 254.995,369.741 253.495,368.741 253,365.5C 227.205,287.781 201.205,210.115 175,132.5C 174.34,130.676 173.173,129.343 171.5,128.5C 177.579,116.674 183.912,105.007 190.5,93.5 Z"/></g>
<g><path style="opacity:0.99" fill="#49a63b" d="M 171.5,128.5 C 173.173,129.343 174.34,130.676 175,132.5C 201.205,210.115 227.205,287.781 253,365.5C 253.495,368.741 254.995,369.741 257.5,368.5C 257.471,372.64 256.804,376.64 255.5,380.5C 254.935,396.397 252.935,412.063 249.5,427.5C 248.21,426.942 247.377,425.942 247,424.5C 218.545,338.803 189.879,253.137 161,167.5C 160.623,166.058 159.79,165.058 158.5,164.5C 162.441,152.343 166.774,140.343 171.5,128.5 Z"/></g>
<g><path style="opacity:0.993" fill="#45a538" d="M 158.5,164.5 C 159.79,165.058 160.623,166.058 161,167.5C 189.879,253.137 218.545,338.803 247,424.5C 247.377,425.942 248.21,426.942 249.5,427.5C 248.344,431.793 247.344,436.126 246.5,440.5C 155.97,368.236 126.636,276.236 158.5,164.5 Z"/></g>
<g><path style="opacity:0.995" fill="#439933" d="M 351.5,169.5 C 365.132,207.724 368.965,247.057 363,287.5C 362.386,292.758 361.219,297.758 359.5,302.5C 327.745,306.681 296.079,311.515 264.5,317C 262.598,318.73 260.931,320.563 259.5,322.5C 260.1,309.175 260.433,295.842 260.5,282.5C 260.5,270.5 260.5,258.5 260.5,246.5C 260.167,226.156 260.5,205.822 261.5,185.5C 290.076,180.37 318.742,175.703 347.5,171.5C 349.333,171.415 350.666,170.748 351.5,169.5 Z"/></g>
<g><path style="opacity:0.992" fill="#409433" d="M 359.5,302.5 C 347.309,357.97 318.642,402.637 273.5,436.5C 271.833,434.167 269.833,432.167 267.5,430.5C 265.64,426.917 263.973,423.251 262.5,419.5C 259.674,406.315 257.34,393.315 255.5,380.5C 256.804,376.64 257.471,372.64 257.5,368.5C 258.485,353.186 259.151,337.853 259.5,322.5C 260.931,320.563 262.598,318.73 264.5,317C 296.079,311.515 327.745,306.681 359.5,302.5 Z"/></g>
<g><path style="opacity:0.995" fill="#a5a985" d="M 255.5,380.5 C 257.34,393.315 259.674,406.315 262.5,419.5C 261.21,420.058 260.377,421.058 260,422.5C 257.531,430.242 254.864,437.908 252,445.5C 251.502,447.544 250.335,448.878 248.5,449.5C 247.677,446.539 247.01,443.539 246.5,440.5C 247.344,436.126 248.344,431.793 249.5,427.5C 252.935,412.063 254.935,396.397 255.5,380.5 Z"/></g>
<g><path style="opacity:0.989" fill="#b5b497" d="M 262.5,419.5 C 263.973,423.251 265.64,426.917 267.5,430.5C 266.196,431.987 265.03,433.654 264,435.5C 260.996,444.511 257.996,453.511 255,462.5C 254.578,464.426 253.411,465.426 251.5,465.5C 250.711,460.096 249.711,454.763 248.5,449.5C 250.335,448.878 251.502,447.544 252,445.5C 254.864,437.908 257.531,430.242 260,422.5C 260.377,421.058 261.21,420.058 262.5,419.5 Z"/></g>
<g><path style="opacity:0.988" fill="#c2c1a7" d="M 267.5,430.5 C 269.833,432.167 271.833,434.167 273.5,436.5C 271.284,440.266 269.617,444.266 268.5,448.5C 266.665,449.122 265.498,450.456 265,452.5C 262.032,462.914 258.199,472.914 253.5,482.5C 252.565,477.006 251.898,471.339 251.5,465.5C 253.411,465.426 254.578,464.426 255,462.5C 257.996,453.511 260.996,444.511 264,435.5C 265.03,433.654 266.196,431.987 267.5,430.5 Z"/></g>
<g><path style="opacity:0.969" fill="#cdccb7" d="M 268.5,448.5 C 267.653,455.812 266.987,463.146 266.5,470.5C 265.25,470.577 264.417,471.244 264,472.5C 261.248,480.262 258.415,487.929 255.5,495.5C 254.883,495.389 254.383,495.056 254,494.5C 252.596,490.47 252.43,486.47 253.5,482.5C 258.199,472.914 262.032,462.914 265,452.5C 265.498,450.456 266.665,449.122 268.5,448.5 Z"/></g>
<g><path style="opacity:0.971" fill="#deddcb" d="M 266.5,470.5 C 266.342,480.191 266.675,489.857 267.5,499.5C 263.216,498.739 259.216,497.405 255.5,495.5C 258.415,487.929 261.248,480.262 264,472.5C 264.417,471.244 265.25,470.577 266.5,470.5 Z"/></g>
</svg>
