<?xml version="1.0" standalone="no"?>
<!DOCTYPE svg PUBLIC "-//W3C//DTD SVG 20010904//EN"
 "http://www.w3.org/TR/2001/REC-SVG-20010904/DTD/svg10.dtd">
<svg version="1.0" xmlns="http://www.w3.org/2000/svg"
 width="600.000000pt" height="315.000000pt" viewBox="0 0 600.000000 315.000000"
 preserveAspectRatio="xMidYMid meet">

<g transform="translate(0.000000,315.000000) scale(0.100000,-0.100000)"
fill="#000000" stroke="none">
<path d="M3799 3125 c-30 -16 -59 -70 -59 -109 0 -43 25 -91 101 -195 63 -86
78 -115 114 -222 47 -138 88 -225 134 -283 22 -28 28 -43 22 -55 -27 -49 -54
-202 -55 -301 -1 -159 37 -280 114 -361 30 -32 44 -39 74 -39 47 0 82 34 91
86 14 83 27 144 31 144 2 0 22 -37 45 -82 31 -63 60 -101 118 -158 42 -42 92
-86 111 -99 l35 -24 -31 34 c-70 75 -224 344 -265 462 -7 20 -16 37 -20 37
-12 0 -57 -62 -73 -102 -9 -20 -21 -77 -27 -127 -14 -100 -23 -109 -63 -66
-57 62 -94 241 -76 375 5 41 21 108 35 149 14 41 25 85 25 97 0 12 -16 42 -37
66 -45 53 -90 150 -133 285 -25 80 -45 121 -91 185 -69 98 -105 155 -113 184
-9 30 16 57 52 56 45 -1 170 -56 229 -101 48 -37 57 -40 152 -49 87 -9 113
-16 193 -55 262 -126 510 -387 612 -644 42 -107 196 -428 219 -456 16 -21 51
-38 134 -66 91 -32 135 -55 242 -126 71 -48 132 -93 134 -100 4 -8 -27 -15
-101 -23 -125 -13 -238 -49 -236 -74 3 -36 58 -111 112 -154 31 -25 103 -68
160 -96 56 -29 134 -76 173 -106 62 -47 68 -50 55 -25 -29 56 -161 180 -262
246 -97 63 -124 91 -107 108 8 7 105 29 224 49 95 17 98 20 58 70 -72 90 -272
234 -409 295 -47 21 -91 43 -99 49 -18 14 -144 273 -204 418 -116 282 -346
533 -632 693 -72 41 -196 75 -269 75 -42 0 -58 5 -86 29 -115 94 -281 144
-351 106z"/>
<path d="M4190 2752 c0 -5 8 -16 19 -26 10 -9 26 -34 36 -56 10 -22 21 -40 25
-40 4 0 13 13 20 29 9 24 9 34 -4 59 -8 16 -23 32 -31 36 -24 9 -65 7 -65 -2z"/>
<path d="M101 1222 c-24 -9 -53 -30 -65 -45 -20 -28 -21 -40 -24 -443 l-3
-414 100 0 101 0 2 384 3 385 148 -333 c82 -182 158 -349 170 -370 31 -55 76
-76 160 -76 88 0 130 20 161 74 13 22 91 191 172 375 l149 333 3 -386 2 -386
95 0 95 0 0 419 c0 480 4 457 -92 486 -102 30 -195 16 -248 -38 -15 -14 -92
-174 -180 -372 -85 -190 -156 -348 -159 -350 -4 -1 -71 148 -150 334 -79 185
-156 352 -171 371 -14 19 -42 43 -61 52 -44 23 -149 23 -208 0z"/>
<path d="M1540 724 c0 -263 6 -287 82 -337 83 -54 121 -60 401 -65 l257 -4 0
-47 c0 -38 -5 -52 -26 -72 l-26 -24 -339 -3 -339 -3 0 -64 0 -65 -775 0 c-768
0 -775 0 -775 -20 0 -20 7 -20 3000 -20 2993 0 3000 0 3000 20 0 20 -7 20
-1887 21 -1646 0 -1881 2 -1836 14 110 30 172 79 193 153 6 22 10 178 10 390
l0 352 -100 0 -100 0 0 -255 0 -256 -249 3 c-228 3 -251 5 -270 22 -20 18 -21
30 -23 250 l-3 231 -97 3 -98 3 0 -227z"/>
</g>
</svg>
