<?xml version="1.0" standalone="no"?>
<!DOCTYPE svg PUBLIC "-//W3C//DTD SVG 20010904//EN"
 "http://www.w3.org/TR/2001/REC-SVG-20010904/DTD/svg10.dtd">
<svg version="1.0" xmlns="http://www.w3.org/2000/svg"
 width="2101.000000pt" height="2048.000000pt" viewBox="0 0 2101.000000 2048.000000"
 preserveAspectRatio="xMidYMid meet">

<g transform="translate(0.000000,2048.000000) scale(0.100000,-0.100000)"
fill="#000000" stroke="none">
<path d="M3495 20473 c-165 -13 -290 -28 -410 -48 -1150 -197 -2149 -932
-2679 -1975 -224 -440 -356 -914 -396 -1419 -14 -188 -14 -13394 0 -13582 95
-1215 748 -2283 1781 -2910 466 -283 976 -454 1554 -521 166 -19 14146 -19
14320 0 1098 122 2042 675 2672 1567 359 509 583 1110 655 1760 19 178 19
13612 0 13790 -122 1098 -672 2037 -1567 2672 -532 378 -1184 610 -1864 663
-93 7 -2322 9 -7080 8 -3821 -1 -6964 -3 -6986 -5z m4475 -5281 l34 -17 1608
-4490 c1013 -2830 1607 -4504 1608 -4527 0 -25 -7 -45 -20 -58 -20 -20 -33
-20 -985 -20 -1074 0 -1008 -4 -1043 68 -10 20 -178 504 -373 1076 -195 571
-355 1031 -357 1022 -3 -15 -144 -16 -1632 -16 l-1629 0 -85 -262 c-47 -145
-200 -621 -341 -1058 -178 -555 -262 -801 -278 -818 -49 -54 -21 -52 -940 -52
-578 0 -864 3 -885 11 -42 14 -58 55 -45 117 6 26 649 1879 1430 4117 780
2239 1434 4116 1451 4171 42 131 71 326 79 535 6 167 10 185 48 207 15 8 324
11 1170 12 1075 0 1152 -1 1185 -18z m7510 -2117 c541 -74 1015 -259 1391
-542 575 -433 984 -1214 1084 -2066 33 -288 28 -734 -14 -1169 -26 -265 -23
-262 -256 -278 -88 -6 -205 -15 -260 -20 -243 -22 -415 -23 -725 -1 -293 21
-358 22 -1705 19 l-1400 -3 3 -35 c6 -64 53 -260 86 -359 154 -457 436 -761
861 -929 324 -128 608 -188 945 -199 302 -9 608 17 1030 88 341 57 567 116
808 211 28 11 34 10 42 -2 14 -21 13 -1444 0 -1492 -15 -53 -54 -80 -197 -136
-377 -148 -777 -234 -1363 -294 -200 -21 -941 -17 -1155 5 -910 97 -1578 399
-2106 955 -513 539 -807 1226 -906 2112 -24 219 -24 736 1 945 68 583 227
1111 462 1540 209 382 523 764 829 1009 261 209 627 417 879 501 246 82 524
132 851 155 192 13 677 4 815 -15z"/>
<path d="M6756 13538 c-33 -155 -115 -486 -161 -649 -40 -142 -364 -1195 -476
-1547 -22 -70 -61 -201 -85 -292 -73 -269 -201 -672 -323 -1014 -12 -33 -21
-61 -21 -63 0 -1 500 -3 1110 -3 900 0 1110 2 1110 13 0 19 -47 168 -175 557
-62 190 -148 458 -190 595 -42 138 -144 464 -227 725 -213 675 -269 860 -403
1338 -70 249 -123 422 -130 422 -7 0 -20 -36 -29 -82z"/>
<path d="M14671 11574 c-174 -29 -374 -115 -520 -224 -167 -124 -289 -273
-387 -475 -83 -173 -128 -320 -168 -552 l-5 -33 1127 0 c703 0 1161 4 1217 10
62 7 109 20 153 40 71 33 69 23 52 205 -48 514 -453 947 -965 1030 -113 19
-390 18 -504 -1z"/>
</g>
</svg>
