<?xml version="1.0" standalone="no"?>
<!DOCTYPE svg PUBLIC "-//W3C//DTD SVG 20010904//EN"
 "http://www.w3.org/TR/2001/REC-SVG-20010904/DTD/svg10.dtd">
<svg version="1.0" xmlns="http://www.w3.org/2000/svg"
 width="2101.000000pt" height="2048.000000pt" viewBox="0 0 2101.000000 2048.000000"
 preserveAspectRatio="xMidYMid meet">

<g transform="translate(0.000000,2048.000000) scale(0.100000,-0.100000)"
fill="#000000" stroke="none">
<path d="M3495 20473 c-276 -22 -474 -53 -694 -108 -773 -195 -1482 -651
-1982 -1275 -479 -599 -753 -1303 -809 -2075 -8 -106 -10 -2107 -8 -6875 4
-6295 5 -6733 21 -6850 78 -570 233 -1024 503 -1479 466 -782 1218 -1373 2094
-1645 218 -67 465 -118 725 -148 166 -19 14146 -19 14320 0 1101 122 2035 670
2675 1572 354 499 580 1107 652 1755 19 178 19 13612 0 13790 -122 1098 -675
2042 -1567 2672 -539 381 -1183 610 -1864 663 -93 7 -2322 9 -7080 8 -3821 -1
-6964 -3 -6986 -5z m11646 -4559 c331 -57 577 -239 725 -539 81 -164 106 -271
112 -479 5 -183 -4 -266 -44 -405 -63 -216 -226 -445 -407 -569 -78 -55 -227
-121 -332 -149 -89 -23 -119 -26 -280 -27 -203 -1 -288 12 -436 68 -363 136
-600 441 -660 845 -18 125 -7 385 21 486 102 376 391 657 775 754 108 27 118
28 286 30 95 0 178 -5 240 -15z m-5452 -659 c16 -8 33 -27 39 -42 5 -15 729
-2055 1607 -4533 1070 -3018 1598 -4519 1599 -4547 1 -29 -5 -48 -17 -60 -17
-17 -72 -18 -985 -21 -957 -2 -967 -2 -1000 18 -20 13 -40 37 -51 63 -10 23
-177 504 -371 1070 l-353 1027 -1631 -2 -1631 -3 -336 -1040 c-185 -572 -345
-1053 -355 -1070 -11 -16 -35 -38 -54 -48 -33 -16 -92 -17 -913 -15 l-879 3
-20 25 c-16 20 -19 35 -16 75 3 32 515 1518 1415 4110 776 2233 1432 4130
1457 4215 55 188 72 295 87 550 10 189 11 196 35 218 l25 22 1160 0 c1001 0
1164 -2 1188 -15z m6138 -2279 l28 -24 3 -3414 c1 -1877 0 -3428 -3 -3447 -4
-18 -17 -44 -30 -57 l-24 -24 -906 0 c-765 0 -910 2 -934 14 -60 32 -56 -239
-59 3446 -2 1856 0 3399 3 3429 5 37 14 61 30 77 l24 24 920 0 920 0 28 -24z"/>
<path d="M8485 13638 c-116 -538 -156 -677 -605 -2118 -54 -173 -130 -427
-170 -565 -39 -137 -123 -405 -186 -594 -63 -189 -114 -348 -114 -352 0 -5
492 -9 1110 -9 611 0 1110 4 1110 8 0 14 -58 197 -165 522 -57 173 -154 477
-215 675 -61 198 -180 578 -265 845 -190 601 -208 662 -345 1150 -130 464
-129 460 -141 460 -5 0 -11 -10 -14 -22z"/>
</g>
</svg>
