<?xml version="1.0" standalone="no"?>
<!DOCTYPE svg PUBLIC "-//W3C//DTD SVG 20010904//EN"
 "http://www.w3.org/TR/2001/REC-SVG-20010904/DTD/svg10.dtd">
<svg version="1.0" xmlns="http://www.w3.org/2000/svg"
 width="126.000000pt" height="126.000000pt" viewBox="0 0 126.000000 126.000000"
 preserveAspectRatio="xMidYMid meet">

<g transform="translate(0.000000,126.000000) scale(0.100000,-0.100000)"
fill="#000000" stroke="none">
<path d="M50 645 l0 -565 580 0 580 0 0 565 0 565 -580 0 -580 0 0 -565z m533
311 c56 -27 81 -69 85 -143 5 -75 -8 -112 -54 -153 -38 -33 -89 -50 -151 -50
l-43 0 0 -105 0 -105 -45 0 -45 0 0 291 0 291 108 -4 c77 -3 118 -9 145 -22z
m367 -166 c0 -39 -1 -40 -34 -40 -68 0 -66 5 -66 -181 l0 -169 -45 0 -45 0 0
199 0 199 33 11 c50 15 69 19 115 20 l42 1 0 -40z"/>
<path d="M420 796 l0 -106 40 0 c47 0 95 22 110 49 18 35 12 98 -13 127 -19
22 -34 28 -80 32 l-57 4 0 -106z"/>
</g>
</svg>
