<?xml version="1.0" standalone="no"?>
<!DOCTYPE svg PUBLIC "-//W3C//DTD SVG 20010904//EN"
 "http://www.w3.org/TR/2001/REC-SVG-20010904/DTD/svg10.dtd">
<svg version="1.0" xmlns="http://www.w3.org/2000/svg"
 width="292.000000pt" height="300.000000pt" viewBox="0 0 292.000000 300.000000"
 preserveAspectRatio="xMidYMid meet">

<g transform="translate(0.000000,300.000000) scale(0.100000,-0.100000)"
fill="#000000" stroke="none">
<path d="M1995 2839 c-324 -87 -591 -162 -593 -166 -1 -5 -40 -73 -85 -153
l-82 -145 -182 -3 -181 -2 -436 -433 -436 -432 437 -437 438 -438 180 0 180
-1 85 -150 c50 -90 93 -154 105 -159 51 -19 1157 -311 1167 -308 6 2 83 269
170 593 l158 589 -91 153 -91 154 91 154 90 153 -63 239 c-36 131 -101 375
-146 543 -103 385 -110 410 -118 409 -4 -1 -272 -73 -597 -160z m168 -301 c-4
-7 -121 -209 -259 -448 l-252 -435 -522 -3 -522 -2 140 147 c77 82 226 233
330 336 l189 189 420 108 c231 59 429 110 439 113 35 9 45 7 37 -5z m397 -605
l121 -431 -121 -434 c-66 -238 -124 -441 -128 -451 -5 -13 -72 95 -262 424
-140 243 -256 447 -258 455 -2 8 113 215 254 460 200 346 260 442 266 428 4
-11 62 -213 128 -451z m-649 -1033 c142 -244 257 -446 256 -447 -3 -2 -898
227 -907 232 -4 2 -152 153 -330 335 l-323 330 524 -2 523 -3 257 -445z"/>
</g>
</svg>
