<?xml version="1.0" standalone="no"?>
<!DOCTYPE svg PUBLIC "-//W3C//DTD SVG 20010904//EN"
 "http://www.w3.org/TR/2001/REC-SVG-20010904/DTD/svg10.dtd">
<svg version="1.0" xmlns="http://www.w3.org/2000/svg"
 width="1080.000000pt" height="1080.000000pt" viewBox="0 0 1080.000000 1080.000000"
 preserveAspectRatio="xMidYMid meet">

<g transform="translate(0.000000,1080.000000) scale(0.100000,-0.100000)"
fill="#000000" stroke="none">
<path d="M5120 10794 c-294 -20 -477 -42 -710 -85 -948 -174 -1850 -613 -2580
-1256 -162 -143 -437 -424 -570 -583 -596 -713 -1001 -1572 -1169 -2475 -66
-356 -85 -582 -85 -995 0 -413 19 -639 85 -995 171 -919 589 -1793 1203 -2515
123 -144 385 -409 536 -543 639 -563 1413 -972 2235 -1180 284 -73 529 -114
870 -149 157 -16 773 -16 930 0 729 74 1309 236 1920 537 557 274 1029 616
1471 1066 415 423 729 867 989 1394 301 611 463 1191 537 1920 16 157 16 773
0 930 -74 729 -236 1309 -537 1920 -260 527 -574 971 -989 1394 -442 450 -914
792 -1471 1066 -606 298 -1201 465 -1905 535 -107 11 -660 21 -760 14z m331
-2515 c100 -57 196 -117 212 -134 61 -61 78 -164 39 -240 -61 -120 -2148
-3725 -2170 -3749 -54 -58 -147 -81 -221 -55 -62 22 -376 210 -404 242 -54 63
-66 158 -29 232 65 130 2151 3727 2176 3753 42 43 98 63 163 59 44 -3 78 -18
234 -108z m-885 -148 l200 -6 -220 -382 -221 -383 -212 0 -213 0 0 -366 0
-365 -386 -672 c-212 -370 -390 -676 -395 -681 -5 -6 -9 407 -9 1037 l0 1047
-533 0 c-533 0 -533 0 -577 23 -26 13 -57 40 -75 65 l-30 44 -3 243 c-3 270 0
285 66 348 61 59 6 56 1257 55 633 0 1240 -4 1351 -7z m2479 -13 c43 -23 85
-67 104 -108 14 -32 16 -175 19 -1462 l2 -1428 796 0 c769 0 796 -1 833 -20
48 -24 87 -70 101 -118 8 -24 10 -120 8 -272 -3 -227 -4 -236 -27 -273 -13
-21 -42 -50 -64 -65 l-41 -27 -1110 -3 c-1241 -3 -1162 -7 -1230 68 -19 21
-39 56 -45 77 -7 25 -11 262 -11 692 l0 655 153 155 c164 166 199 219 227 339
17 72 8 192 -19 267 -31 89 -74 146 -225 300 l-136 140 3 475 2 475 27 47 c28
46 73 82 126 98 15 5 128 8 252 7 188 -2 230 -5 255 -19z m-950 -1051 c5 -34
3 -82 -4 -115 -22 -110 -53 -155 -237 -342 l-173 -175 -211 210 -211 211 162
279 c89 154 179 311 201 349 l41 69 212 -214 213 -214 7 -58z m-1985 -3777 c0
-16 -7 -20 -30 -20 l-30 0 0 -85 c0 -78 -2 -85 -20 -85 -18 0 -20 7 -20 85 l0
85 -30 0 c-23 0 -30 4 -30 20 0 18 7 20 80 20 73 0 80 -2 80 -20z m290 0 c0
-17 -7 -20 -40 -20 -36 0 -40 -2 -40 -25 0 -22 4 -25 35 -25 28 0 35 -4 35
-20 0 -16 -7 -20 -35 -20 -28 0 -35 -4 -35 -20 0 -17 7 -20 40 -20 33 0 40 -3
40 -20 0 -18 -7 -20 -60 -20 l-60 0 0 105 0 105 60 0 c53 0 60 -2 60 -20z
m230 -27 l0 -47 33 47 c25 36 38 47 59 47 l28 0 -35 -49 c-19 -26 -35 -52 -35
-56 0 -4 16 -29 36 -56 l36 -49 -29 0 c-22 0 -35 10 -60 47 l-33 47 0 -47 c0
-40 -3 -47 -20 -47 -19 0 -20 7 -20 105 0 98 1 105 20 105 17 0 20 -7 20 -47z
m354 10 c9 -21 26 -49 36 -63 l20 -25 0 63 c0 55 2 62 20 62 19 0 20 -7 20
-105 0 -104 0 -105 -23 -105 -18 0 -28 10 -41 38 -9 20 -26 48 -36 62 l-20 25
0 -62 c0 -56 -2 -63 -20 -63 -19 0 -20 7 -20 105 0 104 0 105 23 105 18 0 28
-10 41 -37z m419 26 c60 -31 77 -114 33 -162 -66 -71 -176 -28 -176 67 1 79
76 129 143 95z m287 -74 l0 -85 35 0 c28 0 35 -4 35 -20 0 -18 -7 -20 -55 -20
l-55 0 0 105 c0 98 1 105 20 105 18 0 20 -7 20 -85z m409 50 c38 -37 37 -104
-2 -142 -22 -22 -37 -28 -72 -28 -35 0 -50 6 -72 28 -50 50 -33 140 32 168 32
14 87 2 114 -26z m355 23 c14 -6 33 -22 41 -35 14 -21 14 -23 -4 -23 -11 0
-33 8 -49 17 -38 22 -78 7 -88 -32 -13 -54 42 -105 84 -78 27 16 25 33 -2 33
-16 0 -26 6 -26 15 0 11 12 15 50 15 46 0 50 -2 50 -24 0 -12 -11 -35 -24 -49
-66 -71 -176 -30 -176 65 1 82 72 129 144 96z m286 -93 c0 -98 -1 -105 -20
-105 -19 0 -20 7 -20 105 0 98 1 105 20 105 19 0 20 -7 20 -105z m-2865 -339
c30 -13 65 -58 65 -86 0 -5 -18 -10 -40 -10 -29 0 -40 4 -40 15 0 36 -93 44
-107 10 -9 -24 14 -42 70 -55 99 -24 127 -48 127 -112 0 -64 -57 -108 -140
-108 -74 0 -131 36 -145 93 -7 26 -6 27 32 27 30 0 40 -5 48 -22 22 -50 120
-48 120 2 0 22 -8 28 -70 47 -89 29 -130 69 -122 120 4 19 12 42 19 50 33 41
121 54 183 29z m2329 -17 c30 -20 66 -66 66 -83 0 -3 -16 -6 -36 -6 -24 0 -46
8 -66 25 -50 42 -111 28 -143 -35 -54 -105 72 -215 153 -132 l27 27 -45 5
c-40 4 -45 8 -48 33 l-3 27 85 0 86 0 0 -32 c0 -49 -43 -113 -93 -137 -53 -26
-99 -26 -153 -2 -130 59 -131 255 -3 320 56 28 123 24 173 -10z m-4065 7 c33
-17 51 -54 51 -102 0 -28 -8 -44 -35 -71 l-35 -35 37 -47 c20 -25 41 -52 46
-58 7 -10 -2 -13 -39 -13 -49 0 -49 1 -86 58 l-38 57 0 -57 0 -58 -40 0 -40 0
0 170 0 170 75 0 c46 0 87 -6 104 -14z m301 -21 l0 -35 -60 0 -60 0 0 -30 c0
-30 1 -30 55 -30 l55 0 0 -35 0 -35 -55 0 -55 0 0 -35 0 -35 60 0 60 0 0 -35
0 -35 -100 0 -100 0 0 170 0 170 100 0 100 0 0 -35z m140 -37 l0 -72 51 72 50
72 50 0 49 0 -66 -85 -65 -85 63 -80 c35 -44 65 -80 68 -80 3 0 34 73 70 163
l65 162 35 0 34 0 68 -165 67 -165 -31 -3 c-43 -5 -55 3 -63 37 -7 31 -7 31
-74 31 l-68 0 -9 -32 -10 -33 -91 -3 -91 -3 -51 73 -51 72 0 -72 0 -72 -40 0
-40 0 0 170 0 170 40 0 40 0 0 -72z m600 22 c18 -27 35 -50 39 -50 3 0 21 23
39 50 31 48 34 50 78 50 l46 0 -24 -32 c-99 -131 -98 -128 -98 -222 l0 -86
-40 0 -40 0 0 83 0 83 -60 82 c-33 45 -60 84 -60 87 0 3 20 5 44 5 42 0 45 -2
76 -50z m402 -120 l67 -165 -31 -3 c-43 -5 -55 3 -63 37 -7 31 -7 31 -75 31
-68 0 -68 0 -75 -31 -8 -34 -20 -42 -63 -37 l-30 3 52 130 c91 223 81 207 118
203 32 -3 33 -5 100 -168z m660 0 l67 -165 -31 -3 c-43 -5 -55 3 -63 37 -7 31
-7 31 -75 31 -68 0 -68 0 -75 -31 -8 -34 -20 -42 -63 -37 l-30 3 52 130 c91
223 81 207 118 203 32 -3 33 -5 100 -168z m407 156 c31 -17 51 -54 51 -96 0
-67 -45 -110 -115 -110 l-35 0 0 -60 0 -60 -40 0 -40 0 0 170 0 170 75 0 c46
0 87 -6 104 -14z m281 -21 l0 -35 -60 0 -60 0 0 -30 c0 -30 1 -30 55 -30 l55
0 0 -35 0 -35 -55 0 -55 0 0 -35 0 -35 60 0 60 0 0 -35 0 -35 -100 0 -100 0 0
170 0 170 100 0 100 0 0 -35z m239 21 c33 -17 51 -54 51 -102 0 -28 -8 -44
-35 -71 l-35 -35 42 -54 c24 -30 45 -54 48 -54 3 0 34 73 70 163 l65 162 35 0
34 0 68 -165 67 -165 -31 -3 c-43 -5 -55 3 -63 37 -7 31 -7 31 -74 31 l-68 0
-9 -32 -10 -33 -89 -3 -90 -2 -37 57 -38 58 0 -57 0 -58 -40 0 -40 0 0 170 0
170 75 0 c46 0 87 -6 104 -14z m571 -87 l55 -100 3 100 3 101 39 0 40 0 0
-171 0 -170 -42 3 c-42 3 -42 3 -92 97 l-51 94 -3 -96 -3 -97 -39 0 -40 0 0
170 0 170 38 0 c37 0 38 -1 92 -101z m670 29 l0 -72 51 72 50 72 50 0 49 0
-66 -85 -65 -85 63 -80 c35 -44 65 -80 68 -80 3 0 34 73 70 163 l65 162 35 0
34 0 68 -165 67 -165 -31 -3 c-43 -5 -55 3 -63 37 -7 31 -7 31 -74 31 l-68 0
-9 -32 -10 -33 -91 -3 -91 -3 -51 73 -51 72 0 -72 0 -72 -40 0 -40 0 0 170 0
170 40 0 40 0 0 -72z m770 37 c0 -35 0 -35 -45 -35 l-45 0 0 -135 0 -135 -40
0 -40 0 0 135 0 135 -50 0 -50 0 0 35 0 35 135 0 135 0 0 -35z m240 -100 l0
-135 60 0 60 0 0 -35 0 -35 -100 0 -100 0 0 170 0 170 40 0 40 0 0 -135z m230
12 c0 -82 4 -127 12 -135 17 -17 84 -15 102 4 13 12 16 40 16 135 l0 119 41 0
41 0 -4 -127 c-3 -98 -8 -136 -21 -161 -47 -86 -209 -81 -254 8 -8 16 -13 71
-13 153 l0 127 40 0 40 0 0 -123z m390 22 l55 -100 3 100 3 101 39 0 40 0 0
-171 0 -170 -42 3 c-42 3 -42 3 -92 97 l-51 94 -3 -96 -3 -97 -39 0 -40 0 0
170 0 170 38 0 c37 0 38 -1 92 -101z m432 -69 l67 -165 -31 -3 c-43 -5 -55 3
-63 37 -7 31 -7 31 -75 31 -68 0 -68 0 -75 -31 -8 -34 -20 -42 -63 -37 l-30 3
52 130 c91 223 81 207 118 203 32 -3 33 -5 100 -168z m188 98 l0 -72 51 72 50
72 50 0 49 0 -66 -85 -66 -85 58 -73 c31 -39 62 -78 67 -84 7 -10 -2 -13 -41
-13 l-51 0 -50 72 -51 72 0 -72 0 -72 -40 0 -40 0 0 170 0 170 40 0 40 0 0
-72z"/>
<path d="M5326 3249 c-34 -27 -32 -64 7 -92 l27 -21 28 21 c38 28 40 65 6 92
-15 11 -30 21 -34 21 -4 0 -19 -10 -34 -21z"/>
<path d="M5985 3245 c-14 -13 -25 -31 -25 -40 0 -21 44 -65 65 -65 21 0 65 44
65 65 0 21 -44 65 -65 65 -9 0 -27 -11 -40 -25z"/>
<path d="M2040 2760 c0 -46 2 -50 24 -50 29 0 56 24 56 50 0 26 -27 50 -56 50
-22 0 -24 -4 -24 -50z"/>
<path d="M2931 2729 c-7 -23 -15 -47 -18 -55 -4 -11 5 -14 37 -14 38 0 41 2
34 23 -10 35 -33 87 -37 87 -2 0 -9 -18 -16 -41z"/>
<path d="M3461 2729 c-7 -23 -15 -47 -18 -55 -4 -11 5 -14 37 -14 38 0 41 2
34 23 -10 35 -33 87 -37 87 -2 0 -9 -18 -16 -41z"/>
<path d="M4121 2729 c-7 -23 -15 -47 -18 -55 -4 -11 5 -14 37 -14 38 0 41 2
34 23 -10 35 -33 87 -37 87 -2 0 -9 -18 -16 -41z"/>
<path d="M4550 2760 c0 -46 2 -50 24 -50 29 0 56 24 56 50 0 26 -27 50 -56 50
-22 0 -24 -4 -24 -50z"/>
<path d="M5070 2760 c0 -46 2 -50 24 -50 29 0 56 24 56 50 0 26 -27 50 -56 50
-22 0 -24 -4 -24 -50z"/>
<path d="M5391 2729 c-7 -23 -15 -47 -18 -55 -4 -11 5 -14 37 -14 38 0 41 2
34 23 -10 35 -33 87 -37 87 -2 0 -9 -18 -16 -41z"/>
<path d="M6761 2729 c-7 -23 -15 -47 -18 -55 -4 -11 5 -14 37 -14 38 0 41 2
34 23 -10 35 -33 87 -37 87 -2 0 -9 -18 -16 -41z"/>
<path d="M8351 2729 c-7 -23 -15 -47 -18 -55 -4 -11 5 -14 37 -14 38 0 41 2
34 23 -10 35 -33 87 -37 87 -2 0 -9 -18 -16 -41z"/>
</g>
</svg>
