<?xml version="1.0" standalone="no"?>
<!DOCTYPE svg PUBLIC "-//W3C//DTD SVG 20010904//EN"
 "http://www.w3.org/TR/2001/REC-SVG-20010904/DTD/svg10.dtd">
<svg version="1.0" xmlns="http://www.w3.org/2000/svg"
 width="3840.000000pt" height="2160.000000pt" viewBox="0 0 3840.000000 2160.000000"
 preserveAspectRatio="xMidYMid meet">

<g transform="translate(0.000000,2160.000000) scale(0.100000,-0.100000)"
fill="#000000" stroke="none">
<path d="M24690 10905 l0 -2305 263 2 262 3 0 2300 0 2300 -262 3 -263 2 0
-2305z"/>
<path d="M20394 11028 c5 -931 11 -1722 14 -1758 l7 -64 50 -19 c90 -34 392
-106 489 -118 60 -7 212 -9 418 -6 362 5 394 10 588 86 338 135 549 355 667
696 55 159 78 494 49 692 -66 446 -295 764 -665 924 -117 50 -218 76 -348 89
-182 19 -442 -12 -660 -79 -47 -14 -65 -16 -70 -8 -5 7 -9 292 -11 635 l-3
622 -266 0 -266 0 7 -1692z m1226 17 c250 -65 402 -224 482 -502 33 -114 33
-358 0 -488 -53 -212 -165 -357 -337 -440 -123 -59 -176 -68 -400 -68 -175 0
-199 2 -310 29 l-120 29 -3 676 -2 675 149 48 c82 27 175 52 207 57 85 11 260
3 334 -16z"/>
<path d="M11770 11825 l0 -735 -700 0 -700 0 0 -245 0 -245 700 0 700 0 0
-790 0 -790 260 0 260 0 0 790 0 790 700 0 700 0 0 245 0 245 -700 0 -700 0 0
735 0 735 -260 0 -260 0 0 -735z"/>
<path d="M7429 11735 c-1 -3 -2 -173 -3 -377 l-1 -373 -342 -3 -343 -2 0 -155
0 -155 343 0 342 0 0 -377 0 -378 173 -3 172 -2 0 380 0 380 340 0 340 0 0
155 0 156 -342 -3 -343 -3 0 380 0 380 -167 3 c-93 1 -169 0 -169 -3z"/>
<path d="M17355 11571 c-3 -2 -5 -39 -5 -82 l0 -78 -92 40 c-134 59 -241 86
-381 100 -235 23 -477 -16 -665 -106 -121 -58 -169 -92 -274 -193 -135 -130
-227 -277 -296 -473 -46 -131 -56 -215 -56 -494 l0 -250 32 -120 c96 -360 310
-605 654 -750 220 -93 386 -116 793 -110 239 4 409 30 677 107 l106 30 6 67
c3 36 8 572 12 1192 l6 1125 -256 0 c-141 0 -259 -2 -261 -5z m-340 -522 c72
-13 162 -47 263 -102 l74 -40 -6 -421 c-9 -541 -22 -886 -35 -899 -20 -20
-151 -38 -321 -44 -353 -11 -490 29 -654 192 -119 118 -178 259 -197 467 -17
196 22 409 101 545 38 67 126 161 192 207 64 43 200 95 283 106 67 9 209 4
300 -11z"/>
<path d="M33455 11571 c-3 -2 -5 -37 -5 -78 0 -46 -4 -73 -11 -73 -6 0 -46 16
-90 35 -220 97 -412 119 -719 84 -287 -32 -563 -201 -742 -454 -84 -118 -162
-319 -193 -494 -18 -98 -20 -400 -5 -536 34 -300 189 -573 424 -748 141 -105
261 -159 476 -214 129 -33 145 -35 365 -40 146 -4 276 -1 355 6 147 14 380 59
530 102 l108 31 6 142 c3 77 9 614 12 1192 l7 1050 -257 0 c-141 0 -259 -2
-261 -5z m-375 -515 c83 -15 141 -36 273 -98 l87 -41 0 -316 c-1 -174 -5 -471
-10 -661 -7 -299 -10 -346 -24 -356 -34 -24 -181 -39 -396 -39 -198 0 -221 2
-290 23 -150 48 -250 114 -337 223 -89 113 -126 213 -144 395 -32 317 67 599
261 745 152 114 375 162 580 125z"/>
<path d="M28276 11534 c-493 -89 -847 -465 -937 -996 -18 -104 -20 -151 -16
-303 4 -158 8 -194 34 -295 73 -278 198 -471 418 -642 182 -142 328 -200 635
-254 79 -14 153 -19 300 -18 169 0 214 4 333 27 158 31 298 74 411 125 l78 36
-4 233 c-2 130 -8 237 -14 243 -6 6 -29 0 -63 -16 -234 -108 -557 -165 -858
-150 -149 7 -199 16 -293 53 -170 68 -286 180 -359 348 -21 46 -71 233 -71
263 0 9 187 12 900 12 l900 0 -5 53 c-3 28 -10 108 -16 177 -15 176 -33 271
-75 391 -115 334 -331 554 -661 672 -146 53 -460 73 -637 41z m444 -490 c126
-27 211 -85 284 -196 32 -49 51 -107 71 -221 l6 -38 -575 3 c-316 2 -578 7
-582 11 -19 18 97 207 168 273 172 163 384 219 628 168z"/>
<path d="M6285 11530 c-19 -8 -19 -9 3 -9 12 -1 22 4 22 9 0 6 -1 10 -2 9 -2
0 -12 -4 -23 -9z"/>
<path d="M6486 11532 c-3 -4 4 -9 15 -9 23 -2 25 3 4 10 -8 4 -16 3 -19 -1z"/>
<path d="M6328 11523 c7 -3 16 -2 19 1 4 3 -2 6 -13 5 -11 0 -14 -3 -6 -6z"/>
<path d="M6398 11523 c7 -3 16 -2 19 1 4 3 -2 6 -13 5 -11 0 -14 -3 -6 -6z"/>
<path d="M6543 11523 c9 -2 23 -2 30 0 6 3 -1 5 -18 5 -16 0 -22 -2 -12 -5z"/>
<path d="M6603 11523 c9 -2 25 -2 35 0 9 3 1 5 -18 5 -19 0 -27 -2 -17 -5z"/>
<path d="M35992 10888 c1 -343 5 -744 9 -893 6 -270 6 -270 37 -354 58 -156
143 -273 265 -363 188 -139 403 -203 707 -211 333 -8 560 40 767 165 137 82
263 234 323 390 44 112 47 181 49 1126 l1 762 -265 0 -265 0 0 -487 c0 -485
-6 -896 -15 -1089 -7 -162 -50 -270 -138 -351 -182 -168 -573 -176 -772 -16
-45 37 -68 65 -96 122 -21 40 -43 94 -50 120 -9 34 -13 263 -16 874 l-4 827
-270 0 -270 0 3 -622z"/>
<path d="M244 10830 c0 -74 1 -105 3 -67 2 37 2 97 0 135 -2 37 -3 6 -3 -68z"/>
<path d="M1573 10713 c9 -2 23 -2 30 0 6 3 -1 5 -18 5 -16 0 -22 -2 -12 -5z"/>
<path d="M1288 10703 c6 -2 18 -2 25 0 6 3 1 5 -13 5 -14 0 -19 -2 -12 -5z"/>
<path d="M2040 9611 c0 -422 -3 -540 -12 -543 -7 -2 -235 -3 -505 -3 l-493 1
0 -178 0 -178 505 0 505 0 0 -540 0 -540 193 2 192 3 3 537 2 538 503 2 502 3
0 175 0 175 -495 1 c-272 1 -499 2 -505 3 -7 1 -9 186 -7 541 l2 540 -195 0
-195 0 0 -539z"/>
<path d="M6270 9610 l0 -540 -505 0 -505 0 0 -170 0 -170 505 0 505 0 0 -550
0 -550 195 0 195 0 0 550 0 550 505 0 505 0 0 170 0 170 -505 0 -505 0 0 540
0 540 -195 0 -195 0 0 -540z"/>
<path d="M4184 8605 c-3 -6 -3 -177 -2 -380 l3 -370 -340 0 -340 0 -3 -152 -3
-153 343 0 343 0 -3 -380 -2 -379 171 -3 c112 -2 173 1 176 7 2 6 2 178 1 383
l-3 372 343 0 342 0 0 153 0 152 -342 0 -343 0 0 380 0 380 -169 0 c-108 0
-170 -3 -172 -10z"/>
</g>
</svg>
